<?xml version="1.0" standalone="no"?>
<!DOCTYPE svg PUBLIC "-//W3C//DTD SVG 20010904//EN"
 "http://www.w3.org/TR/2001/REC-SVG-20010904/DTD/svg10.dtd">
<svg version="1.0" xmlns="http://www.w3.org/2000/svg"
 width="800.000000pt" height="606.000000pt" viewBox="0 0 800.000000 606.000000"
 preserveAspectRatio="xMidYMid meet">
<metadata>
Created by potrace 1.14, written by Peter Selinger 2001-2017
</metadata>
<g transform="translate(0.000000,606.000000) scale(0.100000,-0.100000)"
fill="#000000" stroke="none">
<path d="M3382 6035 c-10 -13 -25 -46 -31 -72 -7 -26 -23 -79 -36 -118 -13
-38 -27 -88 -31 -109 -4 -23 -20 -54 -40 -76 -55 -61 -100 -144 -118 -219
l-17 -71 28 -35 c20 -25 34 -34 48 -31 68 17 107 18 116 5 11 -18 1 -95 -18
-133 -13 -24 -13 -30 -1 -42 12 -12 20 -12 56 0 40 15 43 14 72 -11 48 -40 57
-21 37 72 -10 42 -17 89 -17 105 0 28 2 29 48 29 26 0 64 7 84 15 45 19 78 21
78 4 0 -7 13 -41 29 -75 27 -56 35 -65 89 -92 58 -29 72 -45 72 -80 0 -10 13
-36 30 -59 22 -31 43 -46 90 -63 l60 -22 0 -59 c0 -69 -15 -111 -59 -160 -55
-63 -34 -91 29 -38 43 38 58 38 71 0 14 -39 55 -44 45 -6 -8 32 13 45 31 21
19 -27 17 -37 -22 -95 -19 -29 -35 -57 -35 -62 0 -10 36 -8 105 7 19 4 37 1
50 -8 19 -14 19 -16 -9 -58 -16 -24 -44 -63 -63 -87 -38 -47 -51 -46 -73 8 -7
16 -27 36 -47 45 -26 13 -41 30 -59 71 -13 30 -24 59 -24 65 0 5 -19 36 -41
69 -40 55 -42 64 -50 155 -11 132 -20 153 -85 208 -45 37 -59 45 -74 37 -26
-14 -40 -62 -47 -165 -3 -49 -12 -99 -19 -110 -8 -11 -14 -35 -15 -55 0 -19
-6 -63 -12 -96 l-12 -62 -37 33 c-28 23 -38 40 -38 62 0 47 -20 58 -40 21 -30
-57 -42 -48 -35 29 6 60 5 71 -13 93 -15 18 -24 22 -32 14 -20 -20 -23 -81 -6
-123 15 -40 13 -69 -8 -83 -17 -11 -26 1 -26 37 0 25 -8 40 -36 64 -44 39 -58
32 -51 -26 4 -34 13 -54 41 -82 34 -35 36 -40 36 -103 0 -37 -4 -69 -9 -72 -5
-3 -27 14 -49 38 -29 31 -42 55 -46 87 -26 166 -39 189 -79 135 -31 -39 -46
-99 -47 -174 0 -58 -20 -106 -50 -122 -21 -11 -68 -98 -89 -162 -12 -35 -14
-36 -39 -27 -15 6 -36 19 -47 29 -11 10 -37 26 -58 37 -24 11 -48 34 -63 60
l-24 41 65 1 c35 0 80 -6 99 -14 20 -8 46 -15 59 -15 25 0 57 28 57 50 0 7
-34 49 -76 91 -41 43 -73 83 -69 89 8 13 41 13 82 -2 48 -17 61 -1 40 51 -9
22 -15 62 -14 91 l2 52 35 -6 c19 -3 49 -8 66 -12 28 -5 35 -2 59 30 28 36 28
38 15 94 -18 76 -59 157 -109 213 -29 33 -45 64 -56 105 -8 33 -23 86 -34 119
-11 33 -25 80 -31 104 -12 46 -52 95 -73 89 -20 -7 -38 -55 -53 -141 -10 -55
-24 -95 -44 -127 -16 -26 -33 -61 -36 -78 -5 -26 -9 -30 -21 -21 -7 7 -16 9
-20 6 -13 -14 31 -99 82 -159 30 -35 69 -81 87 -102 26 -30 77 -119 78 -133 0
-2 -31 -3 -68 -3 -44 0 -75 5 -88 15 -29 22 -42 18 -64 -17 -32 -52 -26 -72
30 -108 27 -18 64 -51 81 -74 18 -22 60 -68 95 -102 63 -59 83 -94 47 -79 -71
30 -95 34 -164 27 -92 -9 -102 -22 -64 -86 20 -35 49 -62 109 -102 44 -30 86
-54 93 -54 7 0 13 -12 13 -26 0 -26 -1 -26 -54 -20 -36 5 -56 3 -61 -4 -14
-23 -62 -30 -212 -31 -173 -2 -173 -2 -192 77 -5 22 -12 46 -15 54 -5 11 11
26 59 53 51 29 65 43 65 61 0 27 -33 36 -137 36 -62 0 -63 0 -63 28 0 57 70
161 109 162 8 0 29 11 48 26 24 18 33 33 33 55 0 43 -33 52 -155 45 l-100 -7
28 23 c16 13 52 44 80 69 29 25 80 67 114 93 46 36 75 69 111 130 52 86 73
134 53 122 -6 -4 -18 -22 -27 -39 -9 -18 -20 -34 -23 -37 -4 -3 -22 -30 -40
-61 -18 -31 -45 -63 -60 -72 -14 -8 -61 -44 -104 -79 -44 -34 -101 -80 -129
-101 -79 -62 -68 -71 87 -75 71 -1 134 -7 139 -12 5 -5 -11 -21 -40 -39 -79
-48 -102 -69 -115 -106 -16 -43 -23 -44 -39 -5 -13 31 -37 56 -45 48 -3 -3 6
-29 20 -59 19 -41 25 -71 25 -121 0 -65 2 -69 45 -122 25 -31 45 -66 45 -78 0
-13 11 -43 25 -67 l25 -43 -25 6 c-14 3 -35 9 -48 12 -25 6 -77 -28 -77 -51 0
-17 82 -139 121 -180 16 -17 29 -36 29 -42 0 -5 9 -22 21 -37 25 -32 16 -33
-55 -1 -53 23 -96 32 -96 20 0 -3 9 -23 20 -45 11 -22 20 -46 20 -54 0 -8 22
-40 49 -71 27 -31 54 -70 60 -87 l11 -31 -39 6 c-21 2 -66 17 -100 32 -62 28
-84 28 -61 0 10 -12 10 -15 -4 -15 -9 0 -16 -6 -16 -14 0 -8 -15 -15 -39 -19
-21 -2 -53 -15 -70 -28 -23 -17 -45 -23 -85 -23 -30 -1 -57 2 -61 6 -4 3 5 24
19 44 14 21 33 59 41 85 9 25 29 59 45 74 17 16 30 34 30 41 0 18 -50 26 -128
22 -65 -3 -67 -2 -70 22 -2 18 10 40 42 77 24 29 47 67 51 84 5 22 20 38 56
61 37 22 49 36 49 54 0 32 -29 43 -102 36 -70 -5 -71 -1 -28 85 22 44 45 72
83 100 48 37 55 48 100 159 27 65 51 129 54 142 8 33 -14 27 -32 -9 l-16 -30
-30 44 c-36 55 -69 148 -69 197 0 33 3 38 34 47 19 6 64 8 100 6 64 -6 65 -5
72 21 5 20 1 33 -16 51 -12 12 -24 41 -27 63 -7 54 25 87 91 97 l46 7 -6 37
c-3 20 -16 52 -29 71 -15 24 -24 57 -28 105 -9 108 -26 207 -38 222 -6 7 -13
52 -16 100 -6 103 -18 149 -43 163 -15 8 -29 1 -74 -38 -66 -54 -86 -104 -86
-209 0 -67 -18 -124 -50 -158 -11 -12 -32 -50 -46 -86 -14 -35 -34 -75 -44
-89 -13 -19 -16 -30 -9 -43 6 -10 9 -25 8 -35 -3 -33 1 -40 32 -51 22 -7 45
-7 80 0 27 6 56 9 63 6 7 -3 16 -29 19 -57 5 -43 2 -60 -17 -96 -23 -43 -24
-43 -41 -24 -25 28 -96 60 -132 60 -17 0 -42 -9 -56 -20 l-26 -21 -18 28 c-13
19 -19 52 -21 114 -4 81 -2 89 25 129 15 24 44 88 63 144 34 99 36 102 89 136
l53 34 -6 71 c-15 170 -17 175 -64 243 -40 59 -45 74 -48 132 -5 84 -6 84 -53
115 -65 40 -107 30 -175 -46 l-38 -42 6 -67 c7 -64 5 -71 -28 -131 -65 -119
-80 -222 -47 -328 12 -38 15 -61 8 -64 -24 -8 5 -79 54 -133 l50 -55 -7 -122
c-4 -67 -11 -130 -16 -141 -16 -31 5 -42 52 -26 35 12 44 11 74 -5 l33 -18
-33 -44 c-43 -56 -64 -130 -61 -214 2 -59 -1 -71 -32 -120 -27 -44 -32 -61
-29 -94 7 -58 77 -168 201 -317 120 -143 119 -140 61 -210 -20 -23 -49 -69
-66 -102 -28 -55 -30 -64 -20 -105 15 -66 0 -86 -28 -38 -18 30 -25 35 -36 26
-11 -9 -15 -7 -20 7 -20 65 -42 67 -107 9 -60 -54 -75 -91 -76 -186 -1 -81
-14 -121 -57 -178 -19 -24 -34 -51 -34 -59 0 -8 -16 -45 -36 -83 -28 -53 -34
-72 -25 -83 6 -7 10 -24 9 -36 -2 -17 5 -28 24 -39 23 -13 35 -14 88 -3 34 7
65 11 68 8 3 -3 7 -31 10 -61 4 -45 0 -64 -19 -100 -13 -25 -27 -45 -31 -45
-5 0 -25 16 -47 35 -40 37 -64 44 -78 23 -21 -34 -33 -90 -33 -164 0 -60 -4
-85 -15 -94 -9 -7 -15 -30 -16 -54 -1 -22 -4 -52 -8 -66 l-7 -25 -16 30 c-9
17 -25 47 -36 67 -11 21 -23 67 -27 102 -4 45 -15 78 -34 108 -32 51 -47 92
-56 163 -4 28 -13 65 -20 83 -27 63 -82 27 -105 -68 -13 -56 -21 -61 -40 -26
-15 28 -9 98 10 122 7 8 44 24 82 35 64 20 72 26 98 68 27 43 72 80 113 91 30
8 24 25 -10 28 -24 2 -33 -1 -33 -11 0 -8 -9 -17 -21 -20 -11 -3 -23 -15 -26
-26 -3 -12 -10 -21 -15 -21 -5 0 -24 -16 -42 -35 -22 -23 -42 -35 -60 -35 -15
0 -34 -7 -42 -15 -17 -16 -34 -20 -34 -7 0 14 52 66 124 122 84 66 118 112
146 195 26 77 24 120 -5 120 -16 0 -25 -15 -45 -71 -31 -86 -72 -146 -147
-214 l-58 -51 -10 113 c-9 98 -13 113 -29 116 -30 6 -41 -16 -41 -81 -1 -237
-8 -252 -81 -169 -24 28 -59 60 -78 71 -37 23 -79 81 -90 124 -7 27 -68 68
-82 54 -4 -3 9 -41 27 -83 29 -65 46 -87 117 -152 46 -41 88 -84 93 -94 9 -16
5 -18 -26 -18 -46 0 -111 57 -125 109 -11 40 -39 70 -82 89 -36 15 -82 79 -98
136 -10 35 -10 52 0 83 16 48 45 107 63 124 7 8 25 40 40 71 15 31 40 67 55
80 16 13 41 40 56 60 32 43 62 54 171 63 100 8 155 -4 236 -52 84 -48 96 -59
102 -92 5 -22 16 -32 49 -46 56 -22 84 -49 114 -107 13 -27 31 -48 39 -48 19
0 19 -3 -9 56 -29 58 -72 102 -112 112 -21 6 -35 20 -51 51 -18 35 -37 52 -96
86 -89 50 -128 65 -176 65 -20 0 -42 4 -49 9 -15 9 -82 -1 -157 -24 -35 -11
-61 -29 -86 -57 l-35 -41 -46 61 c-50 67 -66 103 -98 228 -14 53 -32 94 -51
118 -47 57 -70 43 -27 -17 14 -19 23 -49 25 -80 1 -28 10 -62 19 -76 14 -23
14 -24 1 -11 -28 26 -87 150 -87 182 0 22 -4 29 -15 25 -8 -4 -23 5 -35 20
-24 30 -20 39 8 24 26 -14 87 -14 113 -1 27 15 24 36 -14 83 -19 23 -48 67
-66 97 -17 30 -45 74 -62 97 -38 51 -34 73 15 73 18 0 44 8 57 19 l23 19 -56
68 c-70 87 -82 110 -108 215 -11 46 -25 94 -30 107 -12 29 -62 92 -72 92 -12
0 -10 -38 2 -45 19 -12 49 -81 75 -176 29 -105 47 -139 107 -210 23 -27 38
-52 35 -56 -4 -3 -26 -6 -49 -5 -68 3 -79 -48 -25 -119 19 -24 46 -66 62 -94
16 -27 44 -67 62 -88 19 -21 31 -43 27 -49 -5 -7 -32 -9 -81 -4 -91 7 -100 -4
-50 -66 19 -24 46 -69 60 -101 15 -32 36 -72 48 -89 l22 -31 -164 7 c-174 7
-241 -2 -263 -36 -18 -29 2 -33 50 -10 25 13 67 25 92 29 l47 6 -22 -22 c-21
-19 -23 -32 -23 -111 0 -83 1 -90 20 -90 11 0 20 -6 20 -14 0 -24 15 -27 68
-15 48 12 102 6 102 -9 0 -5 -18 -33 -40 -62 -24 -32 -43 -71 -47 -93 -4 -27
-21 -56 -54 -95 -38 -43 -49 -63 -49 -89 0 -47 19 -50 96 -18 36 15 67 25 70
22 4 -3 6 -32 7 -65 0 -44 -5 -67 -20 -88 -26 -37 -63 -110 -63 -124 0 -24 39
11 50 45 6 19 20 40 30 45 23 13 40 69 40 136 0 78 -28 91 -115 54 -26 -11
-51 -20 -56 -20 -22 0 -6 40 37 91 25 30 52 62 60 72 7 9 26 17 41 17 16 0 57
11 94 23 l65 22 -33 -63 c-42 -82 -42 -118 2 -210 32 -67 38 -74 91 -99 32
-15 59 -35 64 -47 4 -12 12 -36 18 -54 l10 -33 -91 8 c-139 12 -198 9 -250
-11 -43 -16 -57 -33 -41 -48 3 -4 29 5 57 18 29 13 69 24 90 24 l37 0 -20 -20
c-18 -18 -20 -31 -18 -108 3 -81 4 -87 23 -84 11 2 48 4 82 5 70 1 75 8 48 60
-8 16 -17 50 -21 76 l-6 48 61 7 c56 6 66 4 136 -29 41 -20 77 -40 80 -45 3
-4 1 -38 -4 -75 -7 -49 -17 -76 -38 -102 -48 -60 -59 -81 -47 -93 8 -8 23 -1
53 25 24 19 47 35 52 35 5 0 14 -12 20 -27 19 -51 49 -52 49 -3 0 23 4 28 16
23 13 -5 15 -15 9 -52 -8 -55 -17 -72 -66 -131 -47 -57 -73 -109 -93 -189 -17
-67 -17 -67 26 -117 17 -19 22 -20 76 -8 79 16 90 6 73 -73 -27 -128 -27 -116
5 -110 16 3 41 9 55 12 19 5 33 0 57 -20 28 -23 33 -25 38 -10 4 9 -1 50 -10
91 -9 41 -16 86 -16 99 0 23 4 25 43 25 23 0 67 9 97 19 54 19 55 19 58 0 2
-10 -7 -33 -19 -50 -12 -17 -24 -51 -27 -75 l-5 -44 34 0 c19 0 49 -9 67 -20
28 -17 32 -25 32 -63 0 -30 -7 -53 -24 -76 -24 -32 -25 -69 -2 -73 6 -1 43 -2
81 -3 39 -2 85 -6 103 -10 40 -9 41 -1 1 72 -27 49 -30 65 -27 111 5 61 14 74
46 66 26 -7 29 -38 10 -110 -14 -51 -13 -53 71 -107 29 -19 39 -37 71 -128 20
-58 40 -110 43 -116 4 -7 3 -14 -3 -18 -5 -3 -10 -32 -10 -64 0 -62 -39 -173
-79 -228 -12 -16 -24 -47 -28 -68 -3 -22 -16 -60 -28 -85 -17 -34 -24 -72 -30
-155 -4 -74 -13 -125 -26 -155 -11 -25 -18 -54 -15 -66 8 -32 63 -81 98 -88
l31 -6 -5 -68 c-3 -40 -16 -92 -32 -130 -15 -35 -24 -67 -20 -73 3 -6 19 -2
40 11 45 26 50 25 86 -5 29 -24 48 -25 48 -3 0 6 7 20 17 30 13 15 14 22 4 45
-14 31 -6 124 15 165 8 15 59 80 115 145 55 65 115 141 132 170 18 29 36 53
40 53 21 0 18 -38 -8 -85 -15 -29 -25 -56 -22 -61 3 -5 36 -11 74 -12 60 -1
70 -5 86 -27 10 -14 25 -25 33 -25 18 0 18 32 0 135 -8 44 -12 82 -10 85 3 2
37 6 77 8 46 3 78 10 90 20 21 18 23 68 2 75 -17 7 -37 53 -55 127 -18 77 -46
129 -95 175 -44 41 -50 57 -70 192 -4 22 -13 49 -20 60 -14 17 -16 16 -39 -12
-30 -37 -46 -95 -46 -172 0 -85 -12 -93 -40 -26 -13 31 -38 73 -55 92 -46 52
-50 72 -21 115 30 44 43 96 27 105 -8 5 -8 16 0 39 l11 32 71 -6 c44 -3 97 0
137 8 80 17 84 29 40 122 -52 109 -31 149 112 222 48 24 58 41 73 124 14 74
25 98 44 93 11 -3 29 8 49 32 37 41 41 83 16 143 -11 26 -14 52 -9 89 6 51 6
51 -42 97 -26 25 -51 46 -55 46 -4 0 -30 20 -58 45 -28 25 -54 45 -58 45 -5 0
-32 20 -61 45 -59 50 -78 54 -175 31 -58 -14 -110 -46 -74 -46 10 0 43 7 75
15 86 23 108 20 147 -20 19 -19 50 -41 70 -49 19 -8 45 -26 57 -40 13 -15 42
-38 65 -51 65 -38 86 -70 79 -119 -4 -28 0 -59 14 -100 15 -42 18 -63 11 -77
-15 -27 -61 -48 -93 -42 -19 4 -27 1 -27 -9 0 -8 -13 -24 -29 -36 -16 -12 -32
-35 -36 -52 -11 -49 -44 -64 -149 -64 -91 -1 -91 -1 -156 42 -36 23 -76 46
-90 49 -14 3 -47 26 -73 49 -56 51 -101 63 -145 40 -31 -16 -44 -13 -36 9 3 7
-4 16 -15 20 -27 8 -26 28 3 90 22 48 75 105 98 105 5 0 8 17 6 37 -3 36 -1
39 52 68 51 28 55 34 61 73 6 45 14 58 50 76 33 16 36 36 6 36 -15 0 -40 -14
-61 -33 -31 -30 -35 -38 -30 -69 6 -35 5 -36 -47 -64 -49 -26 -54 -33 -59 -69
-3 -25 -11 -41 -20 -42 -23 -4 -53 45 -58 96 -5 56 14 78 79 89 41 7 44 10 47
43 2 24 -4 46 -21 70 -16 24 -26 55 -29 95 -9 97 -29 207 -44 236 -8 14 -14
50 -14 80 l0 53 20 -25 c11 -14 20 -29 20 -33 0 -5 9 -20 20 -34 11 -14 20
-33 20 -43 0 -15 4 -16 35 -6 27 9 35 16 35 35 l0 24 24 -22 c21 -20 33 -22
102 -20 l79 2 3 -43 c2 -26 -4 -59 -14 -81 -26 -60 -18 -67 76 -66 78 0 81 1
74 21 -4 12 -9 51 -11 87 -4 56 -1 71 19 102 27 43 44 45 112 13 84 -39 96
-41 98 -14 4 75 -10 112 -78 200 -24 31 -44 65 -44 75 0 11 -5 24 -12 31 -16
16 1 16 43 -2 19 -8 53 -17 77 -21 49 -8 55 5 20 42 -12 13 -31 39 -42 57 -12
19 -49 72 -83 117 -35 45 -63 86 -63 90 0 5 9 13 21 20 27 14 149 -8 149 -27
0 -7 -9 -38 -21 -69 -12 -31 -19 -59 -16 -61 3 -3 19 2 36 10 37 20 41 20 41
1 0 -11 8 -14 33 -11 17 2 40 7 49 11 11 4 32 -2 53 -15 40 -24 76 -21 55 5
-14 16 -22 62 -24 135 -1 41 1 45 24 48 14 1 50 9 81 18 46 13 66 14 108 5 29
-6 71 -11 95 -11 120 0 142 -25 96 -107 -17 -30 -29 -58 -25 -61 3 -3 37 -7
76 -9 62 -2 72 -6 94 -30 18 -21 27 -25 35 -17 9 9 8 32 -4 95 -9 45 -14 85
-11 87 2 2 17 -5 32 -16 23 -16 35 -40 56 -110 15 -50 42 -112 62 -142 32 -48
35 -58 35 -126 0 -55 -5 -85 -20 -114 -33 -64 -21 -89 24 -55 11 8 29 15 40
15 17 0 10 -11 -35 -54 -63 -60 -79 -103 -79 -216 0 -61 -7 -90 -20 -90 -5 0
-8 28 -7 62 l2 61 -55 43 c-30 24 -77 62 -105 84 -179 143 -166 137 -266 117
-44 -8 -87 -21 -95 -28 -26 -21 1 -30 45 -14 23 8 64 17 91 21 46 6 50 5 86
-30 21 -20 57 -45 81 -56 24 -10 46 -26 49 -35 4 -8 26 -27 50 -41 67 -40 97
-80 90 -123 -4 -24 2 -60 17 -104 l22 -69 -34 -30 c-26 -24 -38 -28 -63 -23
-24 6 -30 3 -35 -13 -2 -11 -15 -24 -28 -30 -16 -7 -28 -25 -35 -51 -14 -53
-35 -63 -145 -68 -90 -5 -90 -5 -145 32 -79 53 -101 63 -166 75 -106 20 -112
22 -135 46 -22 24 -49 32 -49 15 0 -4 10 -23 23 -42 17 -26 30 -34 52 -34 20
-1 30 -6 30 -15 0 -11 16 -17 55 -21 51 -5 52 -6 13 -7 -23 -1 -44 -6 -47 -10
-8 -13 45 -58 75 -66 30 -7 60 -35 131 -124 l50 -64 -31 -82 c-17 -45 -31 -88
-31 -96 0 -7 -7 -21 -16 -31 -15 -17 -14 -18 18 -23 18 -3 58 -7 88 -9 l55 -2
-37 -22 c-22 -13 -45 -38 -55 -60 -13 -27 -31 -44 -62 -58 -38 -19 -101 -85
-101 -106 0 -5 -11 -33 -25 -63 -47 -102 -26 -177 68 -249 65 -49 81 -29 17
22 -23 18 -52 50 -67 72 -25 38 -26 41 -13 97 7 31 19 64 25 72 6 8 24 37 39
63 22 38 39 54 83 75 45 22 58 34 67 61 9 27 25 42 81 74 98 56 182 77 270 65
37 -5 81 -15 96 -21 41 -17 171 -164 165 -185 -3 -9 -14 -51 -24 -92 -26 -105
-53 -160 -111 -230 -56 -67 -61 -84 -32 -102 18 -11 16 -14 -24 -45 -24 -18
-53 -48 -64 -67 -23 -36 -46 -39 -55 -8 -8 27 -11 227 -3 239 9 15 -19 43 -43
43 -25 0 -30 -19 -31 -113 -1 -130 -3 -132 -87 -49 -40 39 -72 76 -72 82 0 7
-9 19 -19 28 -11 10 -26 42 -35 72 -8 30 -22 64 -30 75 -14 19 -16 19 -32 3
-16 -16 -16 -20 0 -81 28 -103 63 -153 166 -237 52 -41 98 -83 104 -92 15 -24
0 -34 -22 -15 -10 10 -31 17 -46 17 -20 0 -39 11 -62 37 -40 43 -55 37 -29
-11 20 -37 34 -46 109 -70 72 -23 86 -40 86 -100 0 -50 -2 -53 -80 -139 -44
-48 -80 -92 -80 -97 0 -12 -5 -13 54 5 27 8 62 15 77 15 18 0 32 7 39 20 17
31 40 25 40 -11 0 -35 19 -35 36 0 21 41 30 44 59 18 l28 -24 -28 -52 c-16
-29 -37 -57 -47 -62 -32 -17 -19 -29 35 -29 47 -1 50 -2 33 -15 -10 -8 -23
-16 -28 -17 -18 -6 -40 -95 -44 -177 -3 -70 -9 -92 -31 -129 -69 -109 -127
-238 -116 -254 4 -7 8 -24 8 -38 0 -41 42 -57 111 -42 37 7 62 8 68 2 5 -5 11
-34 14 -64 4 -44 0 -60 -17 -84 -11 -17 -21 -36 -21 -44 0 -8 -5 -19 -12 -26
-9 -9 -9 -15 -1 -23 9 -9 21 -8 48 3 28 11 51 13 92 6 81 -13 108 22 63 79
-31 39 -27 106 6 132 15 12 38 21 53 21 43 0 55 14 48 54 -3 20 -16 50 -28 67
-12 18 -21 45 -21 63 1 17 -5 66 -13 110 -8 43 -15 93 -15 112 0 19 -4 34 -10
34 -5 0 -10 10 -10 21 0 20 4 21 55 14 l55 -6 0 90 c0 66 -4 93 -15 105 -35
35 3 35 91 0 64 -26 96 -25 74 1 -26 31 -110 48 -202 41 -58 -4 -96 -2 -113 6
-19 9 -28 9 -37 0 -11 -11 -68 -17 -68 -7 0 2 13 25 30 51 16 26 35 63 41 83
7 20 27 53 45 74 53 58 47 67 -44 67 -43 0 -82 3 -85 7 -4 3 8 25 26 47 19 23
51 68 72 101 21 33 49 73 62 89 18 22 23 38 21 70 l-3 41 -47 0 c-25 0 -49 3
-53 6 -3 4 17 35 46 70 60 75 70 96 99 209 11 47 34 107 51 134 35 57 37 94 3
60 l-20 -20 -55 50 c-30 28 -65 63 -77 77 l-23 26 64 32 c65 32 95 66 84 95
-11 29 -57 38 -162 31 -97 -5 -99 -5 -76 12 13 10 44 36 70 59 25 22 79 67
119 98 71 56 113 109 161 203 11 23 21 47 21 53 0 19 -17 2 -35 -36 -9 -19
-20 -33 -23 -29 -4 3 -10 39 -14 78 -18 178 -25 219 -35 225 -5 4 -13 51 -17
106 -4 54 -12 110 -17 123 -7 20 -6 28 8 38 13 10 15 16 6 26 -6 8 -14 71 -18
140 l-7 127 50 54 c48 54 78 128 54 136 -6 2 -2 28 9 63 11 34 19 71 19 84 0
18 7 25 31 30 34 8 64 -9 42 -23 -16 -10 -43 -75 -43 -102 0 -11 -10 -40 -22
-63 -17 -32 -24 -66 -28 -147 -5 -77 -12 -120 -30 -162 -23 -56 -23 -56 -4
-90 12 -20 38 -42 67 -57 l47 -23 0 -52 c-1 -28 -8 -69 -16 -91 -26 -66 -38
-114 -32 -120 4 -4 24 4 46 16 l39 23 32 -27 c36 -30 51 -34 51 -14 0 8 9 22
20 32 18 16 18 20 4 47 -13 24 -13 41 -5 95 11 72 22 89 174 267 101 118 167
230 167 283 0 36 0 36 21 17 18 -16 20 -27 16 -89 -3 -38 -7 -81 -9 -95 -2
-18 1 -24 12 -20 8 2 43 3 78 2 74 -1 83 9 59 66 -9 20 -16 50 -15 65 0 16 -7
34 -17 41 -13 9 -16 20 -11 43 11 47 61 120 96 138 29 15 31 20 26 50 -6 32
-5 35 36 56 63 31 78 48 78 86 0 34 28 73 54 73 20 0 29 30 11 36 -8 3 -30 -4
-49 -15 -39 -25 -41 -23 -65 50 -9 28 -21 41 -52 54 -22 10 -44 26 -49 34 -7
14 2 16 65 16 95 0 102 7 80 77 -25 78 -51 114 -110 158 -48 36 -55 46 -90
137 -20 54 -46 112 -55 130 -16 26 -17 36 -7 57 7 14 17 26 22 26 6 0 21 9 35
20 14 11 33 20 43 20 9 0 17 5 17 10 0 11 50 34 57 26 3 -3 -1 -36 -7 -74 -7
-39 -10 -78 -6 -89 7 -16 9 -16 30 9 20 22 34 27 100 33 46 5 76 12 76 19 0 6
-11 29 -25 51 -29 48 -32 81 -7 94 10 5 53 13 95 17 88 8 83 0 63 114 -16 89
-65 192 -102 217 -36 23 -54 70 -54 140 0 73 -14 120 -45 158 -22 26 -26 28
-39 15 -7 -8 -21 -57 -29 -109 -13 -77 -20 -98 -44 -123 -40 -42 -71 -35 -102
23 -20 38 -38 53 -107 93 -60 34 -98 48 -136 52 -29 3 -63 10 -75 16 -24 12
-143 -12 -193 -37 -46 -24 -170 -155 -170 -180 0 -12 -20 -53 -45 -89 -25 -37
-45 -72 -45 -77 0 -21 -19 -7 -29 21 -5 17 -20 44 -31 61 -14 18 -27 62 -36
117 -8 49 -22 98 -32 112 -33 45 -42 68 -56 150 -22 122 -53 157 -94 105z m79
-140 c7 -46 20 -87 40 -118 19 -32 33 -73 40 -120 7 -47 20 -88 39 -120 16
-26 27 -53 25 -60 -3 -6 4 -25 15 -42 l20 -30 -53 -18 c-33 -11 -116 -23 -232
-31 -163 -13 -182 -12 -198 2 -14 13 -17 24 -12 51 13 70 46 138 95 196 31 36
52 73 56 94 4 20 17 61 29 91 13 30 29 84 35 120 7 41 21 78 38 99 l26 34 13
-39 c7 -21 18 -70 24 -109z m-1564 73 c19 -18 22 -30 21 -82 -3 -58 0 -64 47
-135 45 -66 50 -80 51 -130 0 -31 4 -79 8 -108 l8 -51 -41 -21 c-42 -22 -82
-72 -101 -128 -7 -19 -26 -40 -46 -53 l-35 -20 7 47 c11 76 41 165 69 203 48
66 25 86 -41 36 -26 -20 -50 -36 -54 -36 -4 0 -12 -10 -17 -22 -10 -23 -11
-23 -29 9 -14 25 -26 33 -46 33 -32 0 -38 -23 -13 -50 22 -24 54 -119 61 -184
6 -47 4 -57 -10 -62 -10 -4 -28 -1 -41 6 -18 10 -24 24 -30 67 -4 31 -13 74
-22 97 -17 46 -19 172 -4 224 6 19 25 57 43 85 31 48 33 57 33 140 l0 88 43
41 c39 36 47 39 80 33 20 -4 47 -16 59 -27z m2751 -147 c7 -21 12 -66 12 -101
0 -72 16 -111 72 -175 22 -25 46 -66 54 -92 17 -57 18 -134 2 -155 -16 -20
-173 -31 -299 -22 -82 6 -89 8 -89 28 0 12 9 40 20 61 11 22 27 68 35 103 19
80 40 121 76 150 40 32 56 66 69 148 6 38 13 75 15 82 8 23 22 12 33 -27z
m-483 -2 c35 -6 91 -29 141 -57 73 -41 85 -52 94 -83 7 -26 19 -40 40 -49 l29
-12 -19 -38 c-11 -21 -24 -60 -30 -87 -16 -74 -41 -133 -60 -143 -10 -5 -20
-27 -24 -48 -4 -30 -20 -53 -73 -105 -37 -37 -70 -67 -73 -67 -10 0 -20 80
-20 149 0 67 -12 84 -46 69 -21 -10 -23 -17 -21 -67 1 -31 1 -93 -1 -139 -3
-104 -18 -116 -70 -53 -19 23 -58 60 -86 80 -28 21 -59 53 -68 72 -9 19 -21
46 -28 61 -12 26 -65 57 -77 45 -3 -4 9 -39 26 -79 27 -62 47 -87 129 -166 99
-95 104 -110 37 -98 -44 9 -92 57 -105 106 -10 38 -59 90 -84 90 -34 0 -105
116 -106 172 0 41 33 121 73 175 19 26 38 59 42 73 4 13 40 59 79 102 74 82
66 77 191 102 36 7 50 6 110 -5z m-1916 -160 c6 -18 11 -65 11 -106 0 -44 6
-85 14 -101 16 -32 39 -168 38 -232 0 -28 9 -62 24 -93 30 -57 28 -79 -6 -88
-54 -15 -109 -10 -122 11 -16 25 -26 25 -122 0 -99 -26 -116 -22 -106 28 4 20
19 63 34 96 14 32 26 63 26 67 0 5 15 32 34 59 46 66 60 112 53 171 -7 56 6
103 38 139 12 14 29 37 38 53 22 35 33 34 46 -4z m651 -199 c11 -16 25 -53 30
-82 4 -29 20 -84 35 -123 14 -38 30 -101 35 -138 9 -76 36 -121 94 -156 29
-18 37 -31 47 -77 18 -79 7 -87 -100 -78 l-82 7 -20 39 c-11 22 -52 73 -90
115 -39 41 -77 86 -86 99 -22 34 -11 105 26 163 17 26 32 67 36 96 9 68 36
165 46 165 4 0 17 -13 29 -30z m851 -457 c13 -21 27 -40 31 -41 23 -10 41 -71
40 -133 -2 -76 14 -130 57 -189 17 -24 31 -48 31 -54 0 -6 11 -34 24 -62 l24
-51 -54 -35 c-51 -34 -55 -35 -100 -25 -44 10 -48 9 -62 -11 -18 -27 -91 -31
-116 -6 -16 16 -14 70 5 121 5 13 6 28 4 35 -8 21 22 209 39 250 10 23 16 66
16 112 0 75 12 126 29 126 5 0 20 -17 32 -37z m488 -86 c-5 -64 -12 -93 -25
-108 l-19 -21 -27 33 c-53 63 -32 149 43 175 19 6 34 11 35 10 0 0 -3 -41 -7
-89z m127 -27 c19 -12 34 -26 34 -32 0 -29 38 -81 85 -117 52 -39 85 -91 101
-155 l7 -29 -58 6 c-72 7 -105 -4 -105 -37 0 -18 12 -32 49 -55 39 -23 52 -38
60 -67 5 -20 16 -44 24 -53 8 -9 17 -31 20 -49 6 -29 3 -35 -26 -52 -17 -11
-46 -20 -64 -20 -63 0 -80 -21 -43 -55 28 -25 26 -33 -19 -71 -21 -18 -44 -47
-51 -64 -10 -24 -19 -30 -41 -30 -19 0 -29 5 -29 15 0 8 -7 15 -16 15 -14 0
-14 3 -4 15 23 28 1 28 -61 0 -34 -15 -79 -30 -101 -33 l-40 -5 22 44 c13 24
40 63 61 86 22 24 39 50 39 58 0 9 9 34 21 56 11 23 18 44 14 47 -3 4 -34 -4
-68 -17 -104 -39 -101 -39 -75 3 13 20 46 66 75 102 28 37 62 86 75 110 l22
43 -24 26 c-25 27 -31 28 -106 9 l-28 -7 23 31 c12 18 25 49 28 69 4 23 21 56
44 83 47 56 60 89 52 134 -3 19 -3 46 1 61 l6 25 31 -35 c17 -19 46 -44 65
-55z m-2349 -37 c44 -28 53 -45 53 -108 0 -58 34 -158 77 -227 l37 -60 -24
-71 c-17 -50 -35 -82 -58 -103 -19 -18 -51 -48 -72 -67 -25 -23 -46 -56 -60
-95 l-22 -59 -67 66 c-81 79 -108 123 -86 141 7 6 20 31 29 56 13 39 13 50 1
85 -8 22 -18 45 -22 52 -4 7 -8 52 -9 102 -3 117 24 183 82 205 14 6 24 21 28
44 8 40 29 66 55 66 9 0 36 -12 58 -27z m1193 -238 c17 -100 32 -135 69 -166
l35 -29 -18 -30 c-39 -67 -46 -87 -46 -131 0 -25 -5 -71 -11 -102 l-12 -57
-86 0 c-114 0 -126 9 -125 87 1 75 19 127 58 172 65 73 73 91 80 184 8 95 23
154 37 140 5 -5 13 -36 19 -68z m300 0 c16 -8 40 -30 54 -48 23 -30 25 -39 19
-103 -5 -69 -5 -72 38 -149 40 -73 43 -86 47 -167 3 -65 0 -98 -12 -128 -9
-22 -19 -65 -22 -96 -6 -48 -11 -59 -37 -75 -17 -10 -34 -16 -39 -13 -26 16 4
165 48 242 14 23 22 47 19 52 -10 17 -55 11 -62 -7 -14 -41 -24 -44 -53 -15
-96 95 -158 99 -95 6 26 -38 59 -139 68 -205 l5 -37 -29 15 c-19 10 -40 35
-58 71 -30 59 -75 112 -96 112 -6 0 -19 8 -28 18 -13 15 -15 25 -7 53 6 18 10
63 10 99 0 60 3 70 41 125 56 80 69 113 62 162 -7 51 9 80 50 92 44 13 45 13
77 -4z m522 -182 c10 -9 18 -27 18 -40 0 -12 9 -32 20 -43 l21 -21 -36 -43
c-19 -24 -35 -47 -35 -51 0 -8 94 -1 121 10 12 4 18 -1 21 -20 4 -20 -3 -36
-29 -67 -60 -72 -87 -144 -76 -200 7 -34 15 -35 88 -3 32 14 59 25 60 23 2 -2
6 -15 10 -31 5 -20 3 -27 -7 -27 -8 0 -43 -14 -77 -31 -100 -50 -147 -134
-121 -213 10 -32 9 -39 -11 -68 -36 -53 -82 -98 -99 -98 -8 0 -24 16 -34 35
-21 39 -68 79 -118 99 l-32 14 3 113 c1 69 7 124 15 139 7 14 21 39 30 55 9
17 16 41 16 55 0 14 16 50 35 80 37 58 62 130 71 207 9 83 13 92 51 118 44 29
69 32 95 8z m-2261 -865 c4 -29 8 -77 8 -106 1 -29 6 -63 13 -75 14 -27 38
-166 38 -225 0 -26 11 -66 26 -99 26 -54 26 -57 9 -70 -32 -22 -123 -21 -141
2 -14 19 -62 19 -130 -1 -30 -8 -64 -14 -76 -12 -20 3 -23 8 -20 38 5 52 64
190 106 248 28 37 49 122 40 158 -10 38 4 88 34 128 15 19 35 47 46 62 24 34
37 20 47 -48z m1799 -250 c3 -57 11 -112 18 -124 14 -26 42 -208 35 -233 -2
-10 3 -35 11 -56 17 -40 16 -42 -23 -92 -30 -38 -62 -42 -91 -13 -24 24 -57
25 -124 5 -27 -8 -62 -15 -78 -15 -24 0 -28 4 -28 29 0 48 19 89 46 95 36 9
76 76 73 123 -1 21 6 62 15 92 12 35 16 68 13 96 -8 54 7 105 38 135 14 13 25
27 25 32 0 5 7 20 17 34 15 23 18 24 32 10 11 -11 17 -45 21 -118z m-2346
-483 c11 -61 23 -97 40 -120 18 -23 29 -56 37 -107 7 -45 21 -90 37 -118 15
-25 30 -58 34 -75 3 -16 9 -39 13 -50 10 -33 -71 -55 -248 -66 -84 -4 -164
-11 -178 -14 -18 -4 -31 0 -43 14 -16 18 -17 26 -7 66 19 76 57 151 99 197 27
29 45 60 53 93 7 28 20 69 30 93 10 23 24 72 30 108 8 44 20 75 37 96 l26 31
13 -30 c6 -16 19 -69 27 -118z m2011 8 c-10 -67 -16 -75 -92 -128 -91 -64 -93
-64 -93 -22 0 24 -6 39 -17 46 -25 14 -14 21 62 36 81 17 115 37 115 68 0 20
16 47 28 47 2 0 1 -21 -3 -47z m-1676 -100 c55 -72 61 -89 60 -171 -1 -74 10
-110 48 -161 14 -18 33 -54 42 -80 17 -45 16 -47 -6 -80 -12 -18 -25 -48 -29
-66 -5 -31 -8 -33 -31 -24 -32 12 -103 12 -103 -1 0 -31 -105 -35 -146 -6 -15
11 -14 17 10 64 17 33 26 68 26 96 0 64 19 185 36 223 7 18 17 77 20 130 6 84
16 133 28 133 2 0 22 -25 45 -57z m1893 -28 c3 -38 1 -41 -77 -104 -44 -35
-82 -69 -84 -74 -2 -6 5 -16 15 -24 14 -10 43 -12 124 -7 65 4 114 3 125 -3
20 -11 21 -10 -84 -78 l-53 -35 -60 16 c-57 14 -141 14 -215 -2 -17 -3 -23 0
-23 13 0 10 -11 36 -25 58 -17 27 -24 55 -25 87 0 42 4 50 39 80 22 18 61 45
88 59 26 14 52 35 58 47 8 18 15 20 50 16 22 -3 58 -1 80 4 49 11 62 1 67 -53z
m-1685 9 c16 -5 20 -10 13 -23 -27 -53 -41 -101 -35 -120 3 -11 20 -30 36 -42
29 -20 30 -22 13 -41 -13 -13 -19 -40 -22 -86 -5 -91 -11 -105 -28 -60 -7 21
-26 55 -42 75 -38 48 -51 93 -50 168 1 33 -2 74 -6 92 -6 25 -4 32 11 36 27 7
85 7 110 1z m146 -215 c12 -6 39 -27 59 -47 l37 -35 -6 -77 c-6 -76 -5 -79 30
-136 19 -33 40 -77 46 -99 17 -63 13 -173 -9 -235 -11 -30 -19 -71 -20 -91 0
-43 -15 -59 -53 -59 l-30 0 6 58 c6 67 31 146 59 185 11 15 17 34 14 42 -9 26
-46 17 -64 -15 -17 -30 -42 -40 -42 -17 0 13 -102 87 -120 87 -18 0 -11 -34
14 -71 25 -36 60 -144 69 -211 l5 -36 -29 16 c-18 11 -41 40 -60 79 -33 67
-51 87 -101 111 -26 13 -32 22 -30 42 1 14 6 63 10 110 7 80 10 90 57 160 47
71 49 78 47 134 -3 66 14 96 55 96 12 0 23 5 23 10 0 13 6 13 33 -1z m588
-127 c-5 -23 -17 -52 -27 -63 -18 -20 -140 -109 -149 -109 -3 0 -5 13 -5 29 0
16 -7 37 -17 46 -21 22 -8 30 71 44 65 12 106 41 106 76 0 25 10 39 21 28 4
-5 4 -27 0 -51z m-414 -108 c21 -25 55 -65 76 -89 l37 -42 -26 -69 c-15 -38
-30 -80 -34 -94 -7 -22 -8 -20 -9 15 -2 68 -30 167 -66 233 -55 100 -43 125
22 46z m-73 -596 c9 -12 16 -33 16 -45 0 -15 10 -28 29 -38 40 -20 68 -62 81
-121 8 -36 8 -54 -1 -71 -10 -19 -8 -32 10 -80 59 -152 58 -142 20 -219 -22
-44 -56 -91 -95 -129 -33 -33 -81 -89 -106 -126 -25 -36 -53 -70 -60 -77 -10
-8 -45 -10 -117 -5 l-102 6 -19 37 c-18 36 -18 37 3 70 17 27 22 53 25 149 3
98 8 122 27 156 13 22 26 58 30 80 4 22 20 60 36 83 35 55 66 148 74 229 5 44
13 66 28 81 53 47 97 54 121 20z m264 -70 c13 -84 35 -130 76 -162 24 -18 39
-42 54 -90 12 -37 22 -73 22 -82 0 -8 11 -36 25 -62 14 -26 25 -59 25 -73 0
-26 -2 -27 -72 -30 -40 -2 -98 -3 -129 -1 l-56 4 10 47 c8 44 6 53 -27 119
-42 83 -43 95 -15 147 15 28 24 68 29 135 7 99 25 156 40 129 4 -8 13 -44 18
-81z m1195 -617 c3 -54 11 -109 18 -122 14 -27 38 -173 39 -237 0 -25 10 -63
26 -94 31 -62 25 -70 -56 -76 -53 -4 -64 -2 -81 17 -11 12 -28 20 -37 17 -81
-21 -164 -37 -176 -33 -18 7 -6 79 22 134 12 23 22 51 22 61 0 11 14 37 31 58
46 58 59 98 59 183 0 56 5 83 18 102 79 120 83 124 98 105 6 -9 14 -60 17
-115z"/>
<path d="M7278 5908 c-36 -48 -43 -65 -63 -148 -24 -100 -49 -155 -93 -209
-20 -24 -40 -49 -44 -55 -5 -7 -13 -4 -23 9 -15 19 -16 16 -11 -40 8 -80 21
-125 52 -170 59 -87 77 -133 70 -180 l-7 -44 -67 -3 c-59 -3 -67 -5 -70 -24
-2 -12 11 -40 30 -65 50 -65 51 -67 34 -91 -9 -12 -16 -31 -16 -41 0 -25 -33
-88 -59 -111 -28 -25 -27 -46 2 -46 20 0 23 -4 19 -29 -2 -16 1 -52 7 -79 10
-46 8 -54 -15 -95 -13 -25 -31 -50 -39 -57 -15 -12 -265 -28 -265 -17 0 4 13
27 30 53 16 26 35 63 41 83 7 20 27 54 46 75 34 41 42 65 21 67 -7 0 -41 0
-75 -1 -35 -1 -67 1 -73 5 -5 3 8 28 31 57 22 29 49 68 59 88 10 20 35 56 55
80 30 36 36 49 33 84 l-3 41 -47 0 c-25 0 -49 3 -53 6 -3 4 14 31 38 61 67 82
73 95 102 203 15 55 40 122 56 148 38 63 39 90 3 56 -36 -34 -53 -69 -80 -171
-29 -109 -52 -155 -116 -232 l-50 -60 22 -18 c12 -10 38 -18 56 -18 54 0 52
-22 -9 -113 -30 -45 -61 -95 -70 -112 -8 -16 -27 -41 -41 -54 -47 -44 -28 -81
42 -81 24 0 52 5 64 11 31 17 34 1 5 -29 -15 -15 -37 -55 -50 -88 -28 -70 -72
-143 -92 -151 -37 -14 -7 -23 88 -25 l102 -3 3 -37 c2 -22 -5 -56 -17 -84 -30
-66 -28 -77 10 -69 17 4 55 4 83 1 l52 -7 1 -50 c0 -27 3 -52 6 -56 4 -3 39 8
78 25 74 33 109 40 109 22 0 -6 10 -24 21 -40 18 -24 21 -37 16 -92 -3 -34 -9
-76 -13 -92 -6 -26 -5 -28 17 -20 13 5 50 8 82 6 67 -3 76 7 53 63 -9 21 -16
57 -16 81 l0 44 76 0 c41 0 84 5 95 10 27 15 24 47 -11 87 -16 18 -30 45 -30
58 0 35 -20 72 -49 91 -24 16 -24 18 -6 25 11 4 47 5 81 2 116 -10 137 36 59
132 -25 30 -48 69 -52 86 -6 30 -26 50 -82 81 -43 23 -40 41 4 32 19 -3 56 -3
81 1 l46 7 -6 44 c-8 64 -38 116 -106 183 l-60 60 0 71 c0 38 2 70 4 70 2 0
29 -11 61 -26 75 -33 99 -29 103 14 3 28 -5 43 -47 92 -37 42 -51 67 -51 88 0
20 -15 50 -45 90 -25 33 -45 65 -45 71 0 18 50 24 102 12 54 -12 68 -9 68 16
0 40 -48 163 -86 219 -37 55 -50 89 -69 191 -4 17 -13 37 -21 44 -14 11 -15 8
-9 -27 18 -107 28 -142 50 -179 43 -69 94 -179 101 -214 l7 -34 -57 7 c-126
16 -145 -13 -71 -112 31 -41 45 -70 45 -91 0 -21 11 -43 33 -68 18 -21 43 -53
56 -71 20 -29 21 -33 6 -38 -9 -4 -31 0 -48 8 -56 27 -93 31 -111 13 -9 -9
-16 -22 -16 -28 0 -7 -14 18 -32 56 -17 37 -37 67 -45 67 -20 0 -17 -15 39
-154 50 -123 55 -132 106 -170 37 -29 61 -59 82 -100 43 -85 41 -89 -27 -84
-74 7 -103 -4 -103 -37 0 -19 11 -32 49 -56 36 -21 51 -38 56 -60 4 -16 27
-53 51 -82 32 -37 44 -59 42 -77 -3 -24 -5 -25 -70 -22 -77 5 -128 -4 -128
-22 0 -7 15 -29 34 -49 18 -20 36 -51 40 -68 3 -17 19 -51 36 -75 29 -43 29
-44 8 -55 -27 -15 -100 -3 -131 21 -13 11 -43 22 -66 26 -25 4 -41 12 -41 20
0 8 -7 14 -16 14 -14 0 -14 3 -4 15 23 28 1 28 -61 0 -60 -27 -139 -44 -139
-31 0 16 34 70 67 107 20 22 47 66 60 97 13 31 27 63 30 70 8 19 -25 14 -92
-13 -75 -31 -81 -31 -56 1 12 15 21 32 21 37 0 6 13 25 29 42 33 35 121 163
121 177 0 5 -11 20 -26 34 -18 19 -31 24 -50 20 -13 -3 -35 -9 -48 -12 l-24
-6 24 48 c13 26 24 56 24 67 0 11 20 45 45 75 44 52 45 57 45 122 0 52 6 81
26 124 28 61 24 86 -7 47 -17 -21 -19 -21 -19 -4 0 10 -11 35 -25 55 -14 20
-25 39 -25 41 0 2 14 21 30 42 51 65 39 116 -28 113 -23 -1 -45 2 -48 5 -4 4
6 23 22 43 74 92 92 125 113 206 11 46 37 115 56 153 20 39 35 73 35 78 0 16
-19 5 -42 -25z"/>
<path d="M5994 5458 c-21 -18 -56 -46 -80 -63 -84 -60 -139 -101 -173 -131
-20 -17 -57 -45 -83 -63 -26 -17 -51 -37 -55 -44 -4 -7 -24 -23 -45 -35 -20
-12 -52 -40 -71 -62 -34 -37 -35 -41 -31 -97 4 -45 3 -54 -6 -41 -6 10 -12 53
-14 96 -5 91 -20 157 -42 174 -9 7 -32 28 -52 46 -37 33 -48 37 -70 23 -21
-13 -42 -100 -42 -176 0 -52 -4 -76 -15 -85 -8 -7 -15 -29 -15 -49 0 -20 -7
-69 -15 -109 -9 -40 -13 -82 -10 -95 4 -15 -3 -36 -20 -61 -16 -24 -27 -55
-28 -80 -2 -40 -2 -40 42 -48 24 -4 52 -15 62 -24 26 -24 25 -93 -1 -127 -34
-43 -21 -87 27 -87 21 0 23 -4 23 -50 0 -45 -21 -110 -36 -110 -3 0 -27 18
-53 40 -26 22 -53 40 -59 40 -7 0 -17 9 -24 20 -7 11 -31 33 -53 47 -62 42
-95 75 -95 97 0 11 18 50 41 88 24 39 42 84 45 107 3 35 2 38 -17 34 -12 -3
-34 -26 -50 -51 l-29 -46 0 62 c0 49 -4 64 -16 69 -11 4 -22 -1 -31 -13 -16
-22 -35 -89 -36 -124 0 -22 -1 -23 -7 -5 -5 11 -17 49 -28 85 l-20 65 24 26
c18 19 24 36 24 72 0 26 -4 47 -9 47 -5 0 -23 -12 -40 -26 -23 -19 -31 -34
-31 -58 0 -20 -8 -40 -19 -50 -18 -17 -19 -16 -26 22 -4 28 -2 49 9 71 20 38
20 52 0 99 l-15 37 -21 -25 c-18 -22 -20 -33 -14 -100 l7 -75 -25 24 c-14 14
-26 33 -26 43 0 25 -18 13 -31 -19 -7 -20 -3 -36 27 -89 19 -35 40 -66 45 -70
5 -3 9 -14 9 -24 0 -16 5 -18 35 -13 34 5 35 5 35 -28 0 -36 34 -119 53 -131
6 -4 -9 -12 -36 -18 -43 -11 -76 -34 -65 -45 3 -3 40 4 83 15 43 11 84 20 92
20 7 0 30 -15 50 -34 21 -18 56 -43 78 -54 22 -11 51 -32 65 -47 14 -14 42
-36 63 -48 52 -29 71 -62 72 -127 1 -30 9 -77 18 -103 l17 -49 -31 -30 c-23
-23 -36 -29 -56 -25 -22 4 -35 -3 -66 -34 -22 -22 -42 -53 -46 -72 -9 -41 -48
-56 -156 -56 -78 -1 -82 0 -149 44 -44 28 -90 49 -125 56 -31 6 -66 15 -79 20
-13 5 -30 9 -39 9 -9 0 -29 12 -44 26 -37 36 -54 23 -27 -21 25 -43 35 -50 70
-47 21 2 26 -1 22 -13 -5 -12 3 -15 45 -15 31 0 51 -4 51 -11 0 -7 -12 -9 -34
-5 -21 4 -37 2 -41 -4 -10 -17 33 -58 67 -65 31 -7 66 -40 143 -133 l43 -54
-25 -66 c-14 -37 -31 -85 -38 -106 -6 -22 -17 -42 -24 -44 -28 -9 6 -22 60
-22 53 0 59 -2 59 -20 0 -11 6 -23 14 -26 14 -5 196 8 226 17 9 2 16 -4 18
-16 2 -15 -6 -25 -27 -35 -37 -19 -261 -254 -261 -275 0 -17 34 -55 50 -55 5
0 33 9 61 21 56 21 129 19 124 -4 -6 -31 -37 -87 -47 -87 -6 0 -25 -11 -43
-24 -17 -13 -47 -31 -67 -39 -42 -18 -55 -37 -59 -92 -4 -38 -2 -40 26 -43 16
-2 46 2 66 8 32 11 44 10 78 -4 23 -9 57 -16 75 -16 48 0 60 -19 50 -77 -4
-27 -7 -58 -6 -69 1 -12 -4 -27 -13 -34 -40 -33 10 -42 56 -9 16 11 34 17 40
13 6 -4 27 -10 46 -15 30 -6 36 -5 40 11 5 18 7 18 40 2 28 -13 36 -14 42 -3
7 11 17 10 58 -3 74 -25 85 -36 90 -93 l5 -50 -86 -98 c-48 -53 -85 -99 -82
-102 2 -3 20 0 38 5 18 6 52 13 75 17 22 4 49 15 59 26 24 27 34 24 34 -11 0
-18 5 -30 13 -30 19 0 37 21 37 42 0 28 35 22 73 -12 67 -59 80 -18 18 54 -39
45 -44 59 -56 147 -7 52 -3 57 65 83 69 27 120 84 120 135 0 18 42 61 60 61 4
0 -1 -17 -11 -37 -10 -21 -19 -50 -19 -65 0 -25 4 -28 40 -34 63 -10 90 -37
90 -88 0 -28 -7 -52 -20 -69 -28 -35 -26 -65 5 -79 22 -10 25 -16 19 -47 -10
-52 -30 -87 -65 -113 -39 -29 -65 -79 -84 -163 -19 -80 -34 -116 -57 -133 -24
-18 -23 -47 4 -72 18 -16 35 -20 95 -20 85 0 81 8 57 -123 -13 -69 -14 -91 -4
-100 9 -9 17 -6 33 15 19 23 32 27 100 33 43 4 77 11 75 15 -2 3 -16 32 -33
63 -27 52 -29 58 -14 73 10 9 47 19 95 25 43 6 80 12 83 14 2 3 -1 38 -6 79
-13 89 -65 209 -103 236 -36 26 -48 60 -52 146 -4 71 -3 72 20 61 28 -13 54 5
34 25 -7 7 -12 18 -12 26 0 8 -10 27 -21 44 -18 25 -21 39 -16 90 3 33 7 62
10 64 2 3 34 0 70 -7 58 -11 69 -10 92 5 20 13 25 23 21 39 -3 11 0 27 6 34
13 16 -41 136 -116 258 -25 41 -30 59 -31 124 -2 42 -5 90 -9 107 -6 26 -3 32
18 42 20 9 126 7 126 -3 0 -3 -30 -68 -41 -87 -14 -28 -11 -52 11 -76 21 -22
50 -30 50 -13 0 5 -10 15 -22 23 l-22 15 18 48 c21 53 80 125 103 125 12 0 14
8 11 38 -6 38 -5 38 51 68 43 22 57 35 59 54 6 56 14 72 47 92 42 24 45 38 9
38 -39 0 -93 -58 -87 -93 7 -34 -13 -58 -67 -82 -36 -16 -40 -22 -40 -55 0
-53 -22 -57 -54 -11 -53 76 -25 141 65 156 l41 7 -5 44 c-2 25 -13 54 -23 65
-11 12 -21 44 -25 82 -13 117 -31 212 -45 239 -9 16 -14 57 -14 106 0 150 -57
215 -113 128 -9 -13 -25 -27 -36 -31 -28 -8 -42 -56 -50 -166 -6 -81 -12 -103
-37 -143 -35 -58 -42 -71 -88 -165 -26 -53 -33 -78 -26 -91 5 -9 7 -26 4 -37
-11 -40 42 -55 137 -39 43 7 47 6 52 -16 13 -46 7 -104 -15 -145 -13 -24 -25
-43 -28 -43 -13 1 -39 29 -64 68 -15 23 -43 60 -62 82 -25 28 -41 60 -54 107
-41 153 -80 266 -96 284 -42 46 -73 3 -94 -127 -11 -71 -16 -83 -56 -141 -14
-21 -24 -50 -24 -71 l0 -35 -46 7 c-26 3 -60 6 -75 6 -28 0 -99 51 -99 71 0 5
30 7 68 4 113 -10 153 32 94 99 -16 19 -32 50 -35 73 -4 23 -17 49 -32 63 -14
13 -25 27 -25 32 0 5 36 7 79 6 54 -2 84 2 95 11 28 24 19 63 -29 121 -25 30
-50 72 -56 92 -7 27 -19 42 -42 54 -35 18 -67 43 -67 53 0 4 30 5 68 3 45 -2
73 1 84 10 16 12 16 17 -6 81 -24 71 -57 114 -117 153 -31 19 -42 36 -68 108
-34 95 -68 168 -84 178 -12 7 -2 107 11 120 6 6 27 5 53 -2 24 -7 60 -9 81 -6
33 5 40 3 49 -16 6 -13 34 -34 62 -48 28 -14 68 -41 89 -61 49 -46 50 -83 6
-168 -41 -80 -35 -91 60 -110 89 -17 210 -8 191 15 -11 13 -65 157 -76 200 -3
14 8 35 36 68 23 26 46 56 52 67 6 12 13 18 16 16 2 -3 -7 -25 -20 -49 -24
-40 -31 -65 -28 -95 1 -17 65 -33 129 -33 51 0 53 -1 50 -27 -3 -26 0 -28 45
-34 63 -10 87 -32 87 -78 0 -34 -5 -45 -37 -99 -11 -17 -10 -24 5 -42 15 -19
22 -20 73 -12 43 7 66 5 94 -6 55 -22 61 -6 24 67 -28 54 -31 68 -26 117 3 31
8 58 10 61 3 2 33 -2 67 -9 53 -10 65 -10 88 3 18 10 27 23 27 39 0 14 4 31 9
38 5 9 -4 39 -27 85 -19 40 -40 83 -46 97 -6 14 -23 40 -36 59 -32 44 -45 91
-45 168 0 34 -5 74 -10 88 -9 23 -8 26 5 21 8 -3 22 -3 30 1 16 5 45 53 45 73
0 17 -24 11 -38 -10 -21 -34 -66 -26 -116 20 -33 31 -50 40 -68 35 -32 -7 -66
24 -70 65 -3 29 -11 38 -60 67 -55 32 -57 34 -51 68 7 41 -18 75 -69 96 -25
10 -32 9 -45 -4 -15 -15 -14 -17 13 -27 44 -17 64 -40 64 -72 0 -44 14 -62 70
-88 51 -24 51 -24 45 -61 -5 -31 -3 -38 13 -43 44 -14 50 -34 42 -141 -7 -85
-11 -102 -30 -117 -12 -10 -33 -18 -46 -18 -12 0 -26 -4 -29 -10 -3 -5 -21
-10 -39 -10 -48 0 -102 -22 -176 -70 l-65 -42 -88 5 c-96 6 -137 23 -137 58 0
11 -16 36 -35 56 -19 20 -35 40 -35 46 0 5 -11 6 -25 3 -34 -9 -84 21 -92 54
-4 15 2 48 15 83 16 44 19 64 12 83 -14 35 11 78 63 110 23 15 61 44 84 65 24
22 50 39 58 39 9 0 35 18 57 40 47 45 64 48 151 25 72 -19 87 -19 87 -1 0 15
-38 30 -103 42 l-38 6 28 30 c15 17 48 40 73 53 25 13 56 35 69 49 29 31 65
33 159 10 53 -13 66 -14 75 -3 7 8 8 10 3 6 -5 -4 -16 -1 -25 7 -19 16 -106
36 -161 36 -30 0 -48 -8 -76 -32z m-627 -307 c24 -30 28 -44 33 -130 3 -53 11
-105 17 -116 6 -11 10 -43 10 -71 -2 -42 3 -57 26 -88 16 -20 39 -41 52 -46
24 -9 34 -29 40 -81 6 -41 -14 -46 -94 -26 -86 22 -117 21 -142 -4 -17 -17
-28 -19 -62 -14 -87 13 -93 24 -57 95 11 22 20 57 20 79 0 60 20 178 41 244
12 35 19 86 19 133 0 41 5 85 11 97 12 21 12 20 35 -9 13 -16 36 -44 51 -63z
m1001 -243 c15 -22 35 -52 45 -67 14 -20 17 -39 14 -81 -6 -73 11 -134 56
-199 20 -29 37 -60 37 -68 0 -7 10 -33 22 -56 28 -55 40 -127 22 -134 -7 -3
-55 5 -106 17 l-92 21 -16 -22 c-15 -19 -24 -21 -79 -17 -81 6 -90 15 -61 70
14 27 26 72 31 123 13 124 27 205 37 218 6 7 13 57 17 112 8 102 18 140 36
129 5 -3 22 -24 37 -46z m-745 -267 c8 -38 39 -58 113 -72 69 -14 82 -22 64
-44 -7 -8 -15 -29 -19 -46 l-6 -30 -75 53 c-82 59 -100 84 -100 141 0 44 14
42 23 -2z m-187 -386 c13 -38 26 -87 30 -108 7 -48 67 -116 124 -142 37 -17
60 -48 45 -63 -4 -4 -30 -6 -58 -5 -80 4 -99 -3 -95 -34 2 -18 17 -36 48 -58
31 -22 49 -43 58 -70 7 -21 31 -58 53 -82 27 -29 39 -51 37 -66 -3 -21 -7 -22
-73 -19 -74 4 -125 -9 -125 -31 0 -7 13 -26 30 -42 16 -15 36 -49 45 -75 9
-26 27 -62 40 -81 22 -29 23 -34 9 -42 -26 -15 -112 -2 -144 22 -16 11 -40 21
-54 21 -13 0 -31 7 -40 15 -8 8 -23 15 -33 15 -17 1 -17 1 0 14 9 7 17 18 17
25 0 14 -3 14 -35 -1 -28 -12 -38 -4 -70 54 -16 29 -18 21 33 127 34 68 19 73
-80 29 -27 -12 -50 -19 -53 -16 -8 8 33 76 74 124 20 23 51 67 70 98 l34 57
-21 22 c-55 60 -62 158 -15 227 18 28 23 48 23 103 0 53 6 79 26 119 l26 51
25 -59 c13 -32 35 -90 49 -129z m862 -460 c2 -49 9 -99 15 -110 14 -26 37
-167 37 -227 0 -31 9 -67 27 -103 33 -68 28 -75 -62 -82 -61 -5 -67 -4 -72 16
-7 26 -19 26 -117 1 -101 -27 -115 -23 -106 33 4 23 16 60 27 82 11 22 23 52
27 68 4 15 22 47 40 72 39 50 57 118 50 185 -5 48 2 66 66 159 l35 51 14 -27
c7 -15 16 -68 19 -118z m-1188 -52 c-1 -55 -16 -75 -102 -137 l-78 -56 0 34
c0 18 -7 39 -15 46 -25 21 -17 28 43 40 104 20 132 39 132 89 0 12 5 21 10 21
6 0 10 -17 10 -37z m122 -138 c-8 -25 -18 -45 -22 -45 -4 0 -15 12 -25 26 -29
45 -27 18 3 -42 46 -90 84 -137 164 -200 103 -83 144 -124 121 -124 -10 0 -49
-11 -88 -24 -76 -26 -135 -72 -163 -127 -9 -18 -24 -35 -32 -39 -59 -26 -77
-41 -104 -83 -28 -43 -34 -47 -61 -41 -49 9 -85 6 -132 -12 -24 -9 -46 -14
-49 -11 -3 3 22 31 56 64 33 32 77 80 97 106 19 26 60 63 89 82 30 19 54 41
54 50 0 8 -8 30 -17 50 -19 39 -40 44 -79 19 -19 -13 -38 -15 -80 -11 -31 3
-58 8 -61 11 -3 2 2 15 11 28 9 12 16 29 16 37 0 8 19 35 43 60 93 102 128
148 150 193 15 32 28 47 42 48 11 0 31 7 45 15 37 21 39 19 22 -30z m647 -141
c7 -35 20 -83 30 -106 10 -24 24 -67 30 -96 7 -28 17 -55 22 -58 6 -3 -7 -25
-28 -48 -21 -23 -43 -51 -50 -62 -11 -18 -15 -15 -66 36 -29 31 -68 62 -86 70
-30 12 -33 16 -27 48 3 19 17 52 32 74 17 25 31 64 40 112 7 40 18 93 24 117
l12 44 28 -34 c20 -23 32 -53 39 -97z m-181 -285 c33 -9 50 -22 73 -56 17 -24
41 -50 54 -59 12 -8 37 -43 54 -77 17 -34 40 -73 51 -87 18 -23 20 -31 10 -78
-5 -29 -14 -75 -20 -103 -5 -28 -10 -69 -10 -92 0 -39 -3 -43 -40 -59 -29 -12
-44 -26 -56 -55 -29 -66 -42 -88 -67 -106 -28 -21 -95 -39 -102 -27 -6 9 34
52 123 133 39 35 62 69 88 124 18 41 34 77 34 79 0 2 -10 4 -23 4 -28 0 -62
-35 -71 -73 -4 -16 -26 -46 -49 -67 -93 -86 -133 -126 -144 -145 -10 -18 -13
-18 -27 -5 -12 12 -16 44 -19 149 -3 114 -6 135 -21 143 -36 20 -43 3 -50
-111 -9 -129 -8 -129 -96 -33 -68 73 -110 131 -110 149 0 19 -41 113 -49 113
-3 0 -13 -4 -21 -10 -12 -7 -13 -18 -3 -65 20 -96 54 -156 118 -211 158 -134
204 -191 123 -151 -18 8 -47 21 -65 27 -18 7 -35 20 -38 31 -3 10 -15 21 -26
24 -10 4 -19 13 -19 21 0 8 -11 20 -25 26 -14 6 -25 17 -25 25 0 9 -11 13 -35
11 -22 -1 -40 4 -47 13 -7 9 -27 25 -44 37 -17 11 -43 39 -58 61 -26 37 -28
45 -20 88 4 27 8 53 9 58 1 10 7 21 62 108 16 26 41 46 81 65 47 22 58 32 62
57 4 24 19 37 80 74 126 75 221 88 358 50z m387 -153 c11 -16 28 -40 37 -55
13 -19 18 -47 18 -104 0 -84 13 -125 53 -173 14 -17 29 -44 33 -60 4 -16 16
-47 27 -69 27 -53 39 -125 21 -132 -7 -3 -55 5 -106 17 l-93 22 -14 -21 c-10
-16 -24 -21 -60 -21 -95 0 -111 16 -78 76 13 25 24 68 28 119 12 121 26 205
38 219 6 7 14 55 17 107 3 52 10 106 16 121 l10 28 17 -23 c9 -12 26 -35 36
-51z m-1013 -403 l43 -44 -45 7 c-25 3 -57 15 -72 25 -24 17 -33 18 -73 8 -94
-24 -95 19 -1 65 29 14 60 33 67 42 10 13 14 10 25 -22 7 -20 32 -57 56 -81z
m996 -415 c6 -18 12 -70 15 -115 5 -86 16 -112 78 -178 40 -43 60 -98 61 -168
1 -92 -2 -94 -221 -96 l-181 -2 0 23 c0 13 14 50 30 83 16 33 30 70 30 82 0
44 41 132 71 154 46 32 61 69 84 212 7 46 20 48 33 5z"/>
<path d="M6273 5483 c-15 -5 -5 -33 12 -33 27 0 56 -36 63 -80 7 -42 12 -47
61 -74 51 -27 53 -29 46 -62 -5 -30 -3 -35 19 -43 40 -16 106 -116 106 -162 0
-12 -8 -28 -17 -35 -10 -7 -14 -16 -10 -20 11 -11 40 8 53 36 17 33 -24 124
-79 174 -32 29 -42 46 -42 69 0 28 -6 35 -49 58 -57 31 -67 44 -59 81 4 22 -1
34 -26 57 -32 29 -57 41 -78 34z"/>
<path d="M1436 5221 c-3 -4 -10 -41 -16 -82 -15 -100 -26 -132 -55 -159 -22
-21 -27 -22 -38 -8 -6 8 -34 27 -60 42 -45 26 -49 31 -44 60 2 17 1 38 -4 48
-13 23 -77 61 -94 54 -20 -7 -8 -36 16 -36 24 0 49 -38 49 -76 0 -35 16 -52
77 -83 39 -20 41 -23 36 -56 -5 -30 -2 -36 20 -44 33 -13 83 -81 99 -134 11
-36 10 -40 -13 -57 -21 -17 -22 -19 -6 -25 20 -8 46 10 58 42 12 33 -39 141
-86 180 l-37 31 32 22 c39 28 54 62 70 160 7 41 15 79 18 84 12 21 35 -54 40
-133 5 -96 14 -119 72 -185 55 -65 82 -164 64 -233 -8 -28 -15 -30 -156 -39
l-117 -6 11 30 c16 42 3 51 -30 20 -27 -26 -42 -31 -140 -49 -55 -10 -142 -46
-142 -58 0 -4 -22 -18 -49 -31 -44 -20 -60 -22 -134 -18 -98 6 -127 19 -127
53 0 37 -79 114 -111 108 -16 -3 -35 5 -58 25 l-35 29 23 63 c16 43 21 74 17
99 -7 47 20 93 71 120 21 10 49 31 63 46 14 15 46 38 72 51 26 13 53 32 60 42
32 45 75 49 181 15 49 -15 65 -13 52 7 -10 16 -46 28 -120 40 -71 11 -101 3
-139 -39 -10 -11 -38 -32 -62 -46 -24 -14 -49 -34 -56 -44 -7 -10 -24 -24 -37
-31 -14 -7 -47 -33 -73 -58 l-49 -46 6 -51 c5 -36 2 -62 -9 -89 -26 -63 -21
-100 20 -146 27 -30 40 -38 49 -30 16 13 21 0 41 -95 15 -72 36 -115 56 -115
6 0 40 -19 76 -42 92 -60 100 -91 51 -193 -17 -35 -29 -72 -27 -82 4 -22 51
-35 157 -40 94 -5 146 3 119 18 -8 5 -19 21 -22 36 -4 16 -21 64 -37 107 l-30
79 38 41 c22 23 52 58 68 80 17 24 47 47 79 61 84 37 100 71 31 67 -18 -1 -36
2 -40 8 -4 6 14 10 50 10 47 0 56 3 51 15 -4 12 4 15 46 15 l51 0 -7 -52 c-19
-167 -20 -168 -3 -168 9 0 22 9 31 21 12 17 28 22 88 26 40 2 75 7 78 9 2 3
-8 27 -23 54 -49 87 -36 107 77 116 42 4 79 10 81 14 3 5 -2 47 -10 96 -17 96
-63 196 -102 222 -36 23 -53 65 -53 129 0 32 -5 76 -11 97 -18 66 -65 116 -83
87z m-716 -686 c0 -39 32 -62 114 -80 78 -18 87 -24 61 -45 -8 -7 -15 -28 -15
-46 l0 -34 -77 56 c-87 62 -94 71 -103 132 -5 32 -4 42 7 42 7 0 13 -11 13
-25z"/>
<path d="M196 5071 c-3 -5 -13 -41 -21 -81 -17 -79 -23 -95 -69 -160 -30 -42
-76 -166 -76 -203 0 -25 14 -28 68 -16 52 12 102 6 102 -12 0 -6 -20 -38 -45
-71 -30 -40 -45 -70 -45 -90 0 -21 -14 -46 -50 -87 -40 -47 -50 -65 -50 -94 0
-33 3 -37 25 -37 13 0 50 11 81 25 31 14 58 25 60 25 2 0 4 -27 4 -60 0 -49
-6 -71 -36 -127 -20 -38 -40 -74 -46 -80 -8 -10 -5 -13 11 -13 16 0 26 10 38
37 8 21 24 44 34 51 37 26 54 166 24 196 -17 17 -61 13 -107 -10 -30 -16 -68
-18 -68 -5 0 10 30 50 77 104 22 25 33 47 33 68 0 21 14 50 45 91 74 98 55
126 -73 111 l-55 -6 7 34 c9 45 58 150 90 192 22 29 41 90 60 195 5 30 -6 44
-18 23z"/>
<path d="M7707 5013 c-4 -3 -7 -33 -7 -65 l0 -60 -33 44 c-38 50 -67 61 -67
26 0 -21 23 -72 71 -158 10 -19 19 -44 19 -55 0 -17 6 -20 40 -19 64 2 97 21
121 70 30 63 34 113 14 173 -9 28 -21 49 -25 46 -5 -3 -17 -31 -26 -63 -26
-90 -33 -103 -33 -66 -2 73 -49 153 -74 127z"/>
<path d="M7700 4175 c0 -9 9 -33 20 -55 14 -28 20 -59 20 -108 0 -60 4 -74 28
-108 16 -21 36 -45 45 -53 9 -7 17 -25 17 -40 0 -14 11 -45 25 -69 l25 -43
-54 6 c-50 6 -54 5 -74 -20 l-22 -28 22 -39 c13 -22 43 -65 68 -96 45 -57 105
-152 96 -152 -3 0 -31 11 -62 25 -56 25 -94 32 -94 18 0 -27 53 -128 84 -163
33 -36 66 -95 66 -116 0 -11 -74 7 -132 33 -63 28 -91 28 -64 0 14 -14 15 -17
3 -17 -8 0 -17 -7 -21 -15 -3 -9 -18 -15 -39 -15 -19 0 -46 -9 -59 -20 -34
-26 -110 -43 -143 -30 l-25 10 30 41 c16 23 32 56 36 75 3 18 22 51 41 74 19
22 33 47 30 54 -7 18 -94 30 -147 21 -31 -5 -41 -3 -46 8 -7 20 17 65 55 101
17 17 34 45 37 64 5 27 17 40 54 63 27 16 51 36 54 44 7 20 -2 42 -21 49 -11
4 -3 15 29 39 86 65 108 156 55 235 -27 41 -24 60 22 150 22 43 28 82 11 82
-13 0 -27 -28 -75 -150 -39 -98 -45 -107 -100 -150 -68 -53 -105 -115 -108
-180 l-2 -44 49 -9 c30 -5 60 -4 78 2 49 17 31 -20 -24 -49 -39 -21 -48 -31
-57 -66 -6 -23 -18 -47 -27 -55 -32 -26 -74 -92 -74 -115 0 -40 39 -57 114
-49 82 9 95 1 57 -34 -18 -17 -32 -43 -37 -67 -4 -21 -20 -54 -35 -72 -59 -67
-22 -108 90 -100 l69 5 6 -32 c4 -22 0 -51 -14 -86 -12 -28 -17 -55 -13 -59
11 -10 173 -20 173 -11 0 4 -5 12 -10 17 -19 19 -23 136 -6 164 8 14 20 35 25
48 13 28 19 28 96 -8 77 -36 91 -37 98 -7 13 49 -23 133 -92 217 -16 19 -31
50 -35 68 l-6 32 31 -16 c17 -8 56 -18 87 -21 l56 -6 -37 43 c-20 24 -37 47
-37 52 0 4 -31 49 -70 100 -38 51 -70 100 -70 109 0 25 26 31 104 23 l70 -7
-17 24 c-42 58 -58 86 -67 121 -6 20 -26 55 -45 78 -38 46 -42 56 -48 148 -4
43 -13 76 -31 107 -29 48 -36 54 -36 30z"/>
<path d="M1568 4126 c-21 -16 -48 -86 -49 -130 0 -24 -6 -16 -23 40 -31 96
-36 103 -53 71 -39 -76 -19 -196 41 -242 24 -18 45 -25 78 -25 44 0 46 1 52
34 4 19 15 45 26 59 50 63 80 177 44 163 -9 -3 -18 -6 -20 -6 -2 0 -18 -21
-34 -47 l-30 -47 0 60 c0 71 -8 88 -32 70z"/>
<path d="M6801 3996 c-7 -9 -21 -41 -31 -72 -19 -63 -20 -63 -45 19 -10 31
-21 57 -26 57 -18 0 -42 -91 -35 -138 l6 -47 -17 35 c-34 66 -62 42 -63 -54
-1 -28 -2 -29 -12 -11 -18 33 -51 65 -66 65 -25 0 -8 -76 31 -139 19 -31 37
-69 39 -85 3 -27 6 -29 43 -29 57 1 93 18 113 54 29 55 51 72 83 65 25 -5 29
-2 29 16 0 12 18 52 41 89 44 73 63 149 37 149 -16 0 -49 -33 -69 -70 -13 -24
-14 -22 -19 39 -5 66 -17 83 -39 57z"/>
<path d="M2896 3899 c-3 -17 -6 -46 -6 -63 -1 -28 -2 -29 -12 -11 -17 32 -50
65 -65 65 -27 0 -14 -65 27 -133 22 -37 43 -79 46 -94 5 -26 9 -28 50 -28 33
1 54 8 77 26 33 27 67 103 67 150 0 33 -29 119 -41 119 -8 0 -48 -118 -50
-149 0 -9 -6 9 -13 40 -21 98 -67 142 -80 78z"/>
<path d="M4237 3663 c-2 -4 -10 -24 -16 -45 -10 -30 -9 -43 4 -73 17 -42 20
-85 5 -85 -5 0 -10 -8 -10 -17 -1 -16 -2 -16 -15 1 -8 11 -12 29 -9 43 5 17
-2 30 -26 53 -46 43 -60 39 -60 -16 0 -40 5 -51 34 -78 38 -36 56 -66 56 -95
0 -14 9 -23 28 -27 49 -12 71 -32 78 -73 6 -35 9 -39 40 -43 28 -3 35 0 44 22
6 14 21 43 35 65 48 80 49 82 35 115 -12 29 -14 30 -23 13 -5 -10 -16 -29 -24
-42 -14 -21 -17 -22 -25 -8 -5 11 -5 32 2 58 10 35 9 48 -5 80 -19 42 -52 49
-65 14 -11 -28 -36 -49 -44 -36 -4 5 -1 30 5 56 9 35 9 52 -1 75 -14 33 -36
55 -43 43z"/>
<path d="M2745 3468 c-32 -27 -36 -36 -31 -63 7 -36 -5 -51 -72 -84 -39 -20
-42 -24 -40 -58 1 -21 -3 -38 -9 -40 -32 -11 -65 -50 -93 -109 -28 -60 -29
-66 -15 -93 12 -24 33 -41 51 -41 11 0 2 29 -11 34 -42 16 18 154 80 183 32
15 34 19 29 52 -6 35 -5 36 50 63 50 25 56 31 56 58 0 42 26 90 49 90 21 0 44
23 34 33 -14 15 -44 5 -78 -25z"/>
<path d="M6702 3335 c-54 -13 -81 -29 -69 -41 4 -4 33 1 65 10 92 25 133 22
168 -15 16 -18 48 -40 71 -51 24 -10 47 -27 53 -38 6 -11 30 -31 55 -46 25
-14 56 -39 70 -56 22 -26 25 -37 20 -69 -5 -27 -1 -55 14 -95 12 -31 19 -64
16 -74 -9 -27 -55 -53 -92 -52 -21 1 -33 -3 -33 -11 0 -7 -13 -23 -30 -35 -16
-12 -33 -37 -38 -55 -12 -45 -42 -57 -150 -57 -97 0 -110 4 -175 57 -28 22
-68 36 -137 47 -51 8 -106 30 -128 49 -20 18 -42 23 -42 8 0 -4 10 -23 23 -42
19 -28 29 -34 55 -32 24 2 30 0 26 -12 -5 -12 3 -15 37 -15 24 0 51 -5 59 -10
11 -7 2 -10 -32 -10 -27 0 -48 -4 -48 -8 0 -15 38 -44 89 -67 27 -13 58 -36
67 -52 10 -15 38 -51 61 -79 l43 -51 -35 -94 c-20 -52 -40 -102 -45 -111 -6
-10 -10 -21 -10 -24 0 -4 56 -5 124 -2 170 5 179 14 125 125 -50 102 -26 151
100 215 59 30 68 41 81 108 20 99 30 121 50 115 13 -4 27 5 49 32 36 43 41 95
15 145 -12 23 -14 44 -9 83 5 47 3 55 -20 83 -14 17 -46 44 -70 60 -25 16 -62
44 -83 61 -122 103 -151 121 -194 120 -24 0 -67 -6 -96 -14z m322 -647 c-9
-61 -24 -79 -106 -137 l-73 -51 -3 33 c-2 17 -10 39 -18 49 -19 20 -14 23 66
39 68 13 110 43 110 77 0 20 8 32 22 32 4 0 5 -19 2 -42z"/>
<path d="M4486 3257 c-10 -15 -38 -76 -62 -135 -31 -76 -52 -113 -71 -127 -68
-49 -109 -101 -127 -163 -25 -80 -18 -87 75 -87 82 0 88 -12 23 -46 -38 -20
-49 -32 -65 -73 -16 -44 -63 -106 -79 -106 -3 0 -14 32 -23 71 -18 74 -67 159
-92 159 -20 0 -19 -12 4 -41 31 -41 43 -69 73 -178 29 -106 45 -136 105 -204
47 -53 44 -67 -17 -67 l-50 0 0 -39 c0 -28 9 -50 34 -82 18 -24 47 -69 64
-100 18 -30 43 -66 57 -79 44 -41 34 -50 -55 -50 -71 0 -80 -2 -80 -18 0 -10
13 -31 30 -47 16 -15 36 -49 45 -74 8 -26 31 -70 50 -99 l36 -52 -113 7 c-179
12 -238 10 -282 -12 -76 -38 -53 -61 25 -25 24 11 62 19 84 19 22 0 34 -3 28
-6 -22 -8 -35 -83 -28 -151 6 -54 9 -62 23 -57 10 4 38 9 65 12 45 6 47 5 47
-19 0 -14 3 -47 6 -74 7 -49 7 -49 -14 -31 -11 10 -23 30 -27 44 -6 24 -7 25
-20 7 -21 -28 -18 -65 10 -106 14 -20 25 -41 25 -46 0 -5 7 -15 15 -22 8 -7
15 -24 15 -37 0 -17 4 -23 14 -20 9 4 21 -12 36 -44 25 -52 75 -91 107 -83 15
4 18 -2 20 -43 1 -26 5 -69 8 -96 4 -26 4 -55 1 -64 -6 -14 -8 -14 -21 3 -8
10 -15 33 -15 51 0 22 -9 38 -31 57 -43 36 -59 34 -59 -10 0 -40 15 -73 42
-92 22 -16 48 -64 48 -91 0 -11 9 -22 20 -25 11 -3 29 -9 40 -12 16 -4 20 -1
20 19 0 14 7 30 15 37 8 7 15 18 15 24 0 7 11 27 25 46 28 37 32 67 12 93 -11
16 -14 14 -31 -18 -11 -19 -23 -35 -28 -35 -4 0 -8 30 -7 68 1 37 -1 81 -5 97
-5 21 -1 40 13 65 46 81 71 136 71 158 0 35 -29 24 -67 -26 l-33 -44 0 61 c0
33 -5 63 -11 66 -18 12 -47 -25 -60 -76 -15 -57 -25 -62 -34 -17 -6 27 -3 36
18 54 13 11 30 30 36 42 13 24 15 88 3 96 -5 3 -25 -9 -45 -25 -25 -21 -37
-39 -37 -56 0 -15 -3 -23 -7 -19 -4 3 -13 -4 -20 -16 -12 -22 -12 -21 -13 13
0 20 7 52 15 72 10 24 12 44 6 63 -16 52 -22 63 -35 58 -16 -6 -33 34 -39 92
-5 40 -3 42 25 48 17 3 67 6 111 6 l81 0 -31 32 c-31 33 -83 123 -83 144 0 7
-15 34 -33 61 l-33 49 76 -1 c71 0 75 1 78 24 3 16 -7 35 -31 60 -19 20 -49
62 -66 93 -18 32 -36 60 -42 63 -23 15 -3 20 73 17 49 -2 86 -8 90 -15 13 -21
9 -63 -12 -108 -25 -58 -15 -67 79 -70 70 -2 99 8 72 26 -18 10 -14 160 4 175
8 7 15 21 15 31 0 23 45 26 75 6 11 -8 34 -19 50 -24 17 -6 38 -14 48 -18 13
-5 17 -2 17 14 0 12 5 21 11 21 5 0 7 5 4 10 -4 6 -9 23 -11 38 -6 33 -45 101
-83 145 -26 29 -56 95 -48 104 2 2 19 -3 38 -11 46 -19 129 -31 129 -18 0 5
-7 16 -16 23 -9 8 -37 43 -61 79 -24 36 -64 92 -88 125 -25 33 -44 65 -45 72
0 25 39 35 91 23 77 -19 84 -10 44 50 -19 28 -39 69 -45 91 -6 22 -23 54 -39
72 -42 48 -51 70 -51 129 -1 59 -19 120 -46 149 -41 46 -48 -6 -7 -66 21 -32
26 -49 24 -92 -2 -58 15 -97 63 -142 14 -14 26 -34 26 -46 0 -12 11 -44 25
-70 13 -27 23 -51 21 -53 -2 -2 -23 2 -46 8 -38 10 -44 9 -66 -11 -13 -12 -24
-30 -24 -39 0 -16 91 -156 114 -175 19 -16 68 -105 57 -105 -5 0 -33 11 -63
25 -65 30 -88 32 -88 6 0 -11 4 -22 9 -26 5 -3 15 -22 21 -43 7 -20 25 -50 40
-67 37 -41 66 -85 75 -114 7 -23 6 -24 -33 -19 -22 3 -67 18 -101 33 -62 28
-84 28 -61 0 8 -10 9 -15 1 -15 -6 0 -11 -6 -11 -14 0 -8 -16 -16 -42 -20 -23
-4 -49 -13 -58 -20 -35 -30 -120 -45 -150 -26 -12 7 -9 16 18 55 17 25 32 57
32 70 0 14 15 41 35 64 62 68 40 88 -85 79 -54 -4 -70 -2 -74 9 -10 25 -7 32
35 78 23 25 47 62 54 82 9 25 28 48 55 68 59 41 69 60 47 82 -13 13 -31 17
-81 15 -35 -2 -67 1 -70 6 -3 5 9 38 27 73 23 47 46 74 84 103 46 34 56 47 83
120 17 44 40 91 51 102 15 16 19 32 17 65 l-3 44 -19 -28z"/>
<path d="M3747 3006 c-8 -21 36 -107 84 -164 105 -121 125 -148 136 -182 18
-49 18 -47 -34 -52 -32 -3 -62 1 -89 12 -50 21 -68 13 -85 -37 -13 -40 -17
-34 87 -118 l37 -31 -21 -64 c-12 -35 -22 -71 -22 -81 0 -10 -11 -19 -30 -22
-22 -5 -30 -12 -30 -27 0 -40 40 -99 87 -131 27 -18 50 -33 52 -35 2 -2 -19
-28 -45 -59 l-49 -56 -23 28 c-34 42 -69 114 -77 159 -13 74 -26 114 -37 114
-7 0 -9 -20 -5 -62 9 -84 22 -128 54 -174 40 -60 81 -145 88 -186 l7 -37 -83
-3 c-76 -3 -84 -5 -87 -24 -2 -12 15 -45 43 -81 30 -41 45 -71 45 -91 0 -22
12 -45 41 -78 86 -100 89 -125 8 -94 -27 11 -65 20 -83 20 -33 0 -34 -1 -41
-49 -8 -61 9 -129 41 -159 13 -13 24 -29 24 -36 0 -21 35 -60 48 -52 7 4 -5
34 -34 86 -41 73 -45 85 -42 139 l3 59 55 -23 c30 -14 67 -24 83 -25 24 0 27
3 27 36 0 29 -10 48 -50 96 -36 43 -50 68 -50 90 0 21 -14 49 -40 85 -43 56
-44 65 -3 33 26 -20 63 -27 63 -12 0 5 -7 17 -15 28 -23 30 -18 36 26 29 50
-9 61 3 47 52 -5 19 -7 37 -4 40 9 9 120 53 134 53 20 0 15 -99 -7 -140 -24
-43 -60 -118 -61 -127 -1 -4 3 -9 9 -11 5 -2 19 15 31 38 11 22 30 50 40 60
26 26 32 53 28 130 -3 65 -3 65 -34 68 -17 2 -54 -6 -82 -17 -81 -32 -80 -4 3
89 34 39 45 59 45 84 0 25 11 47 40 82 29 35 40 58 40 81 l0 33 -86 0 c-84 0
-85 0 -79 23 19 62 57 143 89 190 34 49 65 151 66 215 0 33 -17 27 -25 -9 l-7
-31 -20 33 c-11 18 -51 67 -90 108 -40 45 -81 101 -98 138 -17 35 -32 63 -34
63 -2 0 -6 -6 -9 -14z"/>
<path d="M5187 2009 c-11 -6 -25 -26 -33 -45 -12 -29 -19 -34 -48 -34 -27 0
-46 -10 -88 -49 l-53 -49 3 -74 c2 -69 0 -79 -37 -149 -24 -48 -43 -102 -51
-147 -10 -63 -9 -80 8 -149 12 -48 16 -80 10 -84 -21 -13 13 -90 59 -135 l45
-45 -7 -127 c-4 -70 -11 -134 -16 -143 -4 -9 -5 -19 -2 -23 10 -9 52 -7 73 4
13 7 33 2 80 -21 62 -31 128 -40 178 -24 23 7 30 39 11 51 -12 7 -125 7 -150
-1 -29 -9 -59 71 -59 158 0 66 3 79 25 105 13 16 32 50 43 76 l18 47 54 -68
c30 -37 58 -73 63 -80 4 -6 13 -42 18 -79 8 -56 7 -71 -7 -91 -15 -23 -14 -26
5 -47 12 -12 21 -28 21 -34 0 -18 9 -15 48 15 l35 27 38 -22 c21 -12 40 -22
43 -22 12 0 5 40 -15 87 -25 58 -42 147 -34 173 3 10 21 24 40 30 35 11 95 71
95 93 0 7 -10 32 -22 57 -15 33 -22 74 -27 155 -5 83 -12 120 -27 150 -12 22
-24 56 -28 76 -4 21 -17 52 -30 71 -39 57 -76 168 -76 226 0 67 -10 86 -68
123 -48 30 -101 37 -135 18z m56 -49 c10 -16 37 -43 60 -59 39 -27 44 -35 62
-106 10 -43 35 -103 53 -134 19 -31 38 -75 43 -99 5 -24 19 -57 31 -74 18 -27
23 -50 28 -158 5 -107 10 -132 27 -156 21 -28 21 -29 3 -65 l-19 -36 -102 -7
c-102 -6 -103 -6 -132 21 -16 16 -40 47 -54 71 -23 39 -25 47 -14 82 9 32 21
45 62 67 59 33 65 50 50 136 -6 35 -11 80 -11 101 0 41 -16 75 -67 150 -29 42
-33 56 -33 113 0 53 -4 68 -23 87 -13 13 -22 27 -21 32 1 5 5 21 8 37 8 35 27
34 49 -3z m-123 -60 c0 -5 6 -7 13 -4 7 2 26 -5 41 -17 23 -18 27 -28 26 -68
-3 -73 -2 -74 48 -152 44 -68 48 -80 54 -159 4 -47 9 -96 10 -110 2 -20 -4
-28 -34 -42 -40 -19 -74 -60 -106 -128 -13 -26 -33 -50 -48 -57 l-27 -12 6 52
c6 64 39 158 66 193 24 31 28 64 7 64 -8 0 -27 -11 -43 -24 -15 -12 -38 -28
-50 -35 -13 -6 -23 -18 -23 -26 0 -24 -17 -17 -40 15 -23 32 -57 40 -66 15 -3
-8 4 -26 15 -41 43 -54 79 -232 51 -249 -5 -3 -23 1 -40 10 -24 13 -30 22 -30
49 0 19 -9 63 -20 98 -22 70 -26 171 -9 233 6 22 27 66 46 98 35 56 36 59 30
136 l-5 79 37 35 c51 48 91 69 91 47z"/>
<path d="M1132 1890 c-20 -43 -58 -95 -111 -153 -44 -49 -83 -98 -87 -110 -4
-12 -20 -37 -35 -55 -32 -36 -36 -54 -16 -71 14 -11 194 0 230 14 13 6 17 2
17 -18 0 -17 -8 -28 -27 -36 -33 -14 -263 -253 -263 -273 0 -8 11 -24 24 -37
l23 -22 54 20 c34 12 77 19 116 19 l62 -1 -24 -41 c-14 -25 -39 -48 -62 -59
-21 -11 -47 -27 -58 -37 -11 -10 -37 -25 -57 -33 -40 -17 -53 -34 -61 -89 -5
-33 -3 -37 20 -43 14 -3 47 -1 73 6 40 10 54 10 89 -4 23 -10 54 -17 70 -17
40 0 55 -22 46 -68 -4 -20 -8 -48 -9 -62 -1 -14 -7 -35 -14 -47 -7 -12 -12
-24 -12 -27 0 -13 34 -5 66 15 26 16 38 18 53 10 30 -17 81 -14 81 4 0 13 5
12 35 -2 19 -9 37 -14 40 -11 3 3 -3 27 -13 54 -46 118 -36 132 77 115 66 -10
131 -1 131 18 0 4 -15 37 -33 73 -35 70 -98 132 -170 170 -41 21 -41 22 -17
29 45 13 129 9 169 -7 41 -16 81 -7 81 19 0 25 -42 80 -70 90 -17 6 -30 18
-30 26 0 24 -49 99 -69 106 -32 10 -102 65 -96 75 4 6 63 10 136 10 112 0 130
2 136 17 4 11 -1 22 -18 32 -13 9 -46 35 -74 59 -27 23 -87 71 -133 106 -78
59 -132 124 -180 217 -8 14 -24 39 -37 55 l-23 29 -30 -65z m137 -151 c36 -36
91 -85 121 -109 30 -24 76 -62 101 -85 26 -22 57 -48 70 -58 23 -17 22 -18
-76 -12 -109 7 -149 -2 -160 -34 -9 -30 15 -59 70 -86 57 -26 76 -45 95 -92 7
-18 16 -33 21 -33 5 0 9 -6 9 -12 1 -7 15 -22 32 -33 44 -28 50 -50 12 -40
-48 12 -156 17 -198 8 -22 -5 -44 -16 -50 -25 -13 -21 -1 -32 106 -90 76 -41
77 -42 102 -107 14 -38 20 -70 15 -75 -5 -6 -51 -2 -116 8 -66 11 -150 16
-218 15 -122 -3 -170 5 -184 29 -8 14 -15 14 -65 3 -31 -7 -60 -10 -66 -6 -17
10 7 44 43 59 111 49 206 143 207 203 0 24 -38 42 -59 28 -6 -3 -26 -1 -45 6
-30 11 -42 9 -96 -10 -34 -13 -64 -20 -67 -17 -3 3 23 34 59 68 35 35 81 84
102 110 21 26 60 61 87 78 53 35 56 43 35 95 -17 39 -36 44 -82 21 -20 -11
-47 -13 -91 -9 l-62 6 19 25 c11 13 20 31 20 39 0 8 18 36 40 61 22 26 61 72
87 102 49 58 91 78 107 50 5 -8 39 -44 75 -81z"/>
<path d="M4741 1869 c-24 -38 -25 -50 -12 -97 13 -43 5 -67 -16 -50 -8 7 -19
24 -25 38 -9 24 -10 24 -24 6 -20 -28 -18 -48 11 -90 14 -20 25 -41 25 -45 0
-5 6 -14 14 -20 7 -6 16 -24 19 -40 6 -29 7 -29 42 -19 24 8 35 17 35 30 0 28
24 69 59 102 26 25 31 37 31 78 0 26 -3 48 -8 48 -4 0 -25 -14 -46 -32 -31
-26 -37 -36 -32 -58 5 -28 -23 -68 -37 -53 -12 11 -8 72 7 108 15 34 11 70
-12 111 -9 16 -12 14 -31 -17z"/>
<path d="M2559 1833 c-6 -16 -8 -44 -5 -63 16 -98 18 -120 12 -136 -10 -25
-36 2 -36 38 0 40 -15 65 -50 83 -16 8 -31 15 -35 15 -3 0 -5 -21 -5 -46 0
-40 5 -51 34 -78 40 -37 62 -76 49 -85 -34 -22 -42 -145 -14 -208 25 -54 62
-78 123 -79 46 -1 48 0 48 26 0 15 17 52 38 83 33 50 40 56 63 52 24 -5 27 -2
32 28 3 18 17 51 32 73 32 46 45 78 51 122 7 55 -34 34 -83 -44 -10 -16 -12
-11 -13 36 0 30 -4 62 -10 70 -20 32 -67 -49 -73 -127 -3 -43 -19 -5 -24 58
-3 35 -11 72 -18 82 -11 16 -13 15 -25 -12 -7 -17 -19 -36 -27 -43 -14 -11
-15 -5 -9 54 6 52 4 73 -9 97 -19 38 -32 39 -46 4z"/>
<path d="M4036 1134 c-3 -9 -6 -38 -6 -66 l0 -50 -33 44 c-18 23 -41 44 -50
46 -35 7 -14 -62 53 -178 11 -19 20 -44 20 -55 0 -18 6 -20 43 -19 70 2 95 18
122 76 30 64 32 127 6 183 l-18 40 -11 -25 c-6 -14 -19 -52 -29 -85 -13 -44
-18 -53 -20 -35 -9 71 -40 140 -63 140 -5 0 -11 -7 -14 -16z"/>
<path d="M2624 1065 c-13 -21 -15 -39 -10 -91 8 -74 -6 -84 -36 -25 l-16 33
-18 -27 c-18 -28 -19 -22 26 -103 10 -18 25 -41 33 -50 8 -9 17 -26 19 -38 3
-18 7 -19 34 -12 24 6 33 15 37 38 4 16 24 49 46 73 41 44 60 102 43 132 -8
15 -13 14 -45 -15 -28 -25 -37 -40 -37 -64 0 -19 -8 -40 -19 -50 -17 -16 -19
-15 -24 21 -4 25 -1 53 10 81 13 35 14 49 4 82 -14 46 -24 50 -47 15z"/>
</g>
</svg>
