<svg id="svg" version="1.1" width="500" height="500" xmlns="http://www.w3.org/2000/svg" xmlns:xlink="http://www.w3.org/1999/xlink" style="display: block;"><g id="svgg"><path id="path0" d="M0.000 200.000 L 0.000 400.000 97.247 400.000 C 161.875 400.000,194.329 399.732,194.000 399.200 C 193.728 398.760,192.828 398.400,192.000 398.400 C 190.000 398.400,183.362 391.783,181.934 388.365 C 181.006 386.145,180.800 378.301,180.800 345.226 C 180.800 316.363,180.548 304.800,179.920 304.800 C 179.436 304.800,175.777 307.872,171.789 311.626 C 160.377 322.368,149.094 327.200,135.418 327.200 C 128.805 327.200,127.196 326.894,119.292 324.128 C 100.011 317.381,86.186 293.631,91.520 276.417 C 93.097 271.325,92.663 270.994,86.387 272.495 C 74.682 275.294,61.404 271.223,51.511 261.800 C 47.738 258.207,40.800 248.658,40.800 247.058 C 40.800 246.432,40.503 245.578,40.139 245.160 C 39.776 244.742,39.054 242.960,38.535 241.200 C 32.530 220.826,40.048 201.195,60.478 183.903 C 67.191 178.220,79.662 171.875,88.400 169.696 C 90.600 169.148,93.660 168.388,95.200 168.008 C 99.868 166.855,106.515 165.721,111.956 165.149 C 118.285 164.483,117.095 162.811,109.711 161.993 C 91.732 160.001,75.361 154.431,64.402 146.577 C 55.304 140.058,40.800 123.123,40.800 119.020 C 40.800 118.415,40.503 117.578,40.139 117.160 C 39.141 116.012,37.685 110.614,36.814 104.836 C 34.065 86.590,45.302 66.537,63.200 57.747 C 69.778 54.516,85.795 53.371,90.151 55.820 C 92.587 57.189,92.975 56.030,91.598 51.493 C 87.240 37.128,94.158 20.437,109.351 8.659 C 112.342 6.340,122.875 1.600,125.037 1.600 C 126.175 1.600,127.328 1.240,127.600 0.800 C 127.928 0.269,106.542 0.000,64.047 0.000 L 0.000 0.000 0.000 200.000 M144.400 0.800 C 144.672 1.240,145.810 1.600,146.929 1.600 C 158.331 1.600,182.100 22.662,189.322 39.165 C 190.005 40.724,190.874 42.720,191.254 43.600 C 192.885 47.378,195.124 55.287,196.349 61.600 C 197.075 65.340,198.013 70.137,198.434 72.261 C 198.855 74.385,199.200 77.355,199.200 78.861 C 199.200 80.367,199.560 81.600,200.000 81.600 C 200.440 81.600,200.800 80.812,200.800 79.848 C 200.800 78.885,201.189 75.915,201.665 73.248 C 203.823 61.146,204.952 55.451,205.559 53.600 C 205.919 52.500,206.697 49.980,207.286 48.000 C 213.397 27.468,238.939 1.600,253.100 1.600 C 254.203 1.600,255.328 1.240,255.600 0.800 C 255.928 0.270,237.193 0.000,200.000 0.000 C 162.807 0.000,144.072 0.270,144.400 0.800 M273.200 0.800 C 273.472 1.240,274.430 1.600,275.329 1.600 C 281.209 1.600,296.376 12.156,302.405 20.443 C 308.858 29.314,311.367 42.520,308.436 52.180 C 307.203 56.241,307.904 57.740,310.158 55.869 C 313.380 53.194,330.104 54.461,337.200 57.917 C 365.161 71.537,372.082 108.096,351.224 132.000 C 335.276 150.278,317.794 158.891,290.232 162.052 C 283.067 162.874,281.758 164.445,287.662 165.136 C 291.911 165.633,299.278 166.942,308.400 168.821 C 316.786 170.548,328.758 175.874,336.000 181.099 C 345.046 187.626,359.200 204.147,359.200 208.180 C 359.200 208.785,359.487 209.622,359.837 210.040 C 362.435 213.141,364.260 226.082,363.189 233.800 C 359.827 258.020,335.265 278.018,315.200 272.873 C 307.333 270.856,307.755 270.777,308.350 274.162 C 312.808 299.547,300.895 317.807,274.343 326.288 C 261.072 330.526,241.683 324.302,227.973 311.400 C 224.116 307.770,220.564 304.800,220.080 304.800 C 219.451 304.800,219.200 316.531,219.200 345.843 L 219.200 386.887 216.921 390.443 C 214.176 394.727,212.455 396.316,208.330 398.374 C 205.208 399.932,205.444 399.936,302.600 399.968 L 400.000 400.000 400.000 200.000 L 400.000 0.000 336.353 0.000 C 294.125 0.000,272.872 0.269,273.200 0.800 " stroke="none" fill="#ffffff" fill-rule="evenodd"></path><path id="path1" d="M127.600 0.800 C 127.328 1.240,126.175 1.600,125.037 1.600 C 122.875 1.600,112.342 6.340,109.351 8.659 C 94.158 20.437,87.240 37.128,91.598 51.493 C 92.975 56.030,92.587 57.189,90.151 55.820 C 85.795 53.371,69.778 54.516,63.200 57.747 C 45.302 66.537,34.065 86.590,36.814 104.836 C 37.685 110.614,39.141 116.012,40.139 117.160 C 40.503 117.578,40.800 118.415,40.800 119.020 C 40.800 123.123,55.304 140.058,64.402 146.577 C 75.361 154.431,91.732 160.001,109.711 161.993 C 117.095 162.811,118.285 164.483,111.956 165.149 C 106.515 165.721,99.868 166.855,95.200 168.008 C 93.660 168.388,90.600 169.148,88.400 169.696 C 79.662 171.875,67.191 178.220,60.478 183.903 C 40.048 201.195,32.530 220.826,38.535 241.200 C 39.054 242.960,39.776 244.742,40.139 245.160 C 40.503 245.578,40.800 246.432,40.800 247.058 C 40.800 248.658,47.738 258.207,51.511 261.800 C 61.404 271.223,74.682 275.294,86.387 272.495 C 92.663 270.994,93.097 271.325,91.520 276.417 C 86.186 293.631,100.011 317.381,119.292 324.128 C 127.196 326.894,128.805 327.200,135.418 327.200 C 149.094 327.200,160.377 322.368,171.789 311.626 C 175.777 307.872,179.436 304.800,179.920 304.800 C 180.548 304.800,180.800 316.363,180.800 345.226 C 180.800 378.301,181.006 386.145,181.934 388.365 C 183.362 391.783,190.000 398.400,192.000 398.400 C 192.828 398.400,193.728 398.760,194.000 399.200 C 194.740 400.397,204.212 400.164,207.302 398.873 C 211.298 397.203,214.338 394.553,216.909 390.500 L 219.200 386.887 219.200 345.843 C 219.200 316.531,219.451 304.800,220.080 304.800 C 220.564 304.800,224.116 307.770,227.973 311.400 C 241.683 324.302,261.072 330.526,274.343 326.288 C 300.895 317.807,312.808 299.547,308.350 274.162 C 307.755 270.777,307.333 270.856,315.200 272.873 C 335.265 278.018,359.827 258.020,363.189 233.800 C 364.260 226.082,362.435 213.141,359.837 210.040 C 359.487 209.622,359.200 208.785,359.200 208.180 C 359.200 204.147,345.046 187.626,336.000 181.099 C 328.758 175.874,316.786 170.548,308.400 168.821 C 299.278 166.942,291.911 165.633,287.662 165.136 C 281.758 164.445,283.067 162.874,290.232 162.052 C 317.794 158.891,335.276 150.278,351.224 132.000 C 372.082 108.096,365.161 71.537,337.200 57.917 C 330.104 54.461,313.380 53.194,310.158 55.869 C 307.904 57.740,307.203 56.241,308.436 52.180 C 311.367 42.520,308.858 29.314,302.405 20.443 C 296.376 12.156,281.209 1.600,275.329 1.600 C 274.430 1.600,273.472 1.240,273.200 0.800 C 272.922 0.350,269.074 0.000,264.400 0.000 C 259.726 0.000,255.878 0.350,255.600 0.800 C 255.328 1.240,254.203 1.600,253.100 1.600 C 238.939 1.600,213.397 27.468,207.286 48.000 C 206.697 49.980,205.919 52.500,205.559 53.600 C 204.952 55.451,203.823 61.146,201.665 73.248 C 201.189 75.915,200.800 78.885,200.800 79.848 C 200.800 80.812,200.440 81.600,200.000 81.600 C 199.560 81.600,199.200 80.367,199.200 78.861 C 199.200 77.355,198.855 74.385,198.434 72.261 C 198.013 70.137,197.075 65.340,196.349 61.600 C 195.124 55.287,192.885 47.378,191.254 43.600 C 190.874 42.720,190.005 40.724,189.322 39.165 C 182.100 22.662,158.331 1.600,146.929 1.600 C 145.810 1.600,144.672 1.240,144.400 0.800 C 144.124 0.354,140.407 0.000,136.000 0.000 C 131.593 0.000,127.876 0.354,127.600 0.800 " stroke="none" fill="#49b86e" fill-rule="evenodd"></path></g></svg>